<?xml version="1.0" standalone="no"?>
<!DOCTYPE svg PUBLIC "-//W3C//DTD SVG 20010904//EN"
 "http://www.w3.org/TR/2001/REC-SVG-20010904/DTD/svg10.dtd">
<svg version="1.0" xmlns="http://www.w3.org/2000/svg"
 width="1024.000000pt" height="1536.000000pt" viewBox="0 0 1024.000000 1536.000000"
 preserveAspectRatio="xMidYMid meet">

<g transform="translate(0.000000,1536.000000) scale(0.100000,-0.100000)"
fill="#000000" stroke="none">
<path d="M4900 14735 c-240 -48 -410 -198 -473 -414 -13 -47 -20 -113 -24
-229 l-6 -164 -33 -16 c-52 -24 -78 -86 -69 -165 16 -154 67 -278 147 -363
l50 -54 -5 -217 c-3 -125 -10 -236 -17 -261 -17 -58 -53 -85 -207 -156 -70
-33 -231 -111 -358 -174 l-230 -114 -159 -29 c-241 -45 -372 -96 -485 -187
-119 -98 -228 -281 -278 -467 -24 -91 -26 -119 -28 -300 -2 -196 -2 -202 -28
-245 -62 -107 -132 -333 -162 -525 -9 -54 -20 -187 -24 -295 l-9 -195 -40 -96
c-82 -197 -133 -383 -163 -599 -21 -147 -16 -545 10 -880 15 -183 24 -394 26
-590 2 -168 8 -334 13 -370 5 -36 6 -101 2 -145 -34 -359 -34 -363 -22 -415 7
-29 55 -140 107 -248 70 -144 105 -205 134 -231 52 -49 351 -198 424 -211 49
-10 63 -8 101 9 28 12 50 31 60 50 35 67 12 127 -81 209 -57 51 -113 120 -113
139 0 4 15 -7 32 -24 66 -64 139 -71 194 -20 55 50 55 83 -5 409 -60 327 -95
433 -168 513 -112 123 -127 160 -120 295 10 179 74 394 215 723 109 251 158
407 189 602 4 28 7 144 5 259 -1 125 2 225 9 250 6 23 48 116 94 208 82 164
156 364 170 461 7 47 25 75 25 39 0 -55 50 -196 125 -352 47 -96 91 -202 100
-235 25 -100 29 -236 11 -375 -28 -209 -31 -323 -11 -471 l17 -134 -35 -110
c-91 -283 -125 -446 -162 -775 -20 -182 -28 -231 -70 -405 -18 -77 -49 -228
-69 -335 -118 -652 -85 -1307 90 -1812 20 -56 40 -119 44 -139 5 -20 5 -181 0
-375 l-8 -339 -46 -165 c-96 -340 -119 -491 -120 -765 0 -222 6 -278 70 -635
116 -644 157 -1089 119 -1285 -10 -49 -18 -144 -19 -210 -3 -132 -10 -158 -87
-305 -40 -76 -72 -114 -217 -255 -91 -87 -127 -149 -137 -230 -18 -151 133
-232 479 -256 187 -13 233 -6 322 47 65 38 164 135 189 184 9 17 20 57 25 88
10 60 12 63 94 120 87 60 101 131 70 350 -16 108 -16 120 1 230 18 111 18 123
2 252 -21 165 -21 224 -2 393 39 334 92 576 188 867 156 469 158 556 35 1372
-11 74 -11 80 19 180 39 129 68 258 137 613 30 154 82 415 116 580 105 519
144 774 175 1165 9 107 18 210 21 228 9 58 24 34 24 -40 1 -84 26 -429 39
-533 5 -38 14 -113 21 -165 13 -106 103 -594 125 -680 21 -82 119 -559 159
-775 20 -105 54 -253 77 -330 23 -77 44 -158 46 -180 3 -22 -7 -107 -21 -190
-52 -311 -59 -385 -60 -595 -1 -280 18 -385 129 -730 88 -274 161 -676 172
-953 4 -83 1 -190 -7 -271 -11 -120 -11 -142 5 -227 17 -90 17 -101 1 -209
-34 -240 -12 -320 101 -371 40 -19 41 -21 53 -89 20 -117 112 -234 241 -305
l54 -30 164 2 c286 5 485 65 537 164 24 46 18 126 -14 194 -36 74 -66 111
-160 191 -90 77 -143 145 -189 244 -59 125 -75 180 -68 230 4 27 -3 109 -16
200 -18 129 -20 180 -15 305 9 218 54 580 116 931 83 467 84 481 84 744 1 212
-3 262 -22 370 -24 128 -65 302 -107 445 -22 77 -23 98 -27 465 l-3 385 33 95
c65 189 112 423 144 720 20 188 17 669 -6 845 -21 168 -64 392 -116 610 -21
88 -46 223 -55 300 -49 416 -75 566 -130 750 -71 234 -69 224 -49 374 17 133
17 137 -6 374 -24 253 -23 370 5 464 8 27 43 105 78 174 70 135 106 227 133
332 9 37 20 67 24 67 5 0 16 -34 25 -76 34 -154 96 -318 178 -474 l82 -155 6
-285 c8 -380 27 -466 193 -844 138 -316 216 -586 216 -750 0 -95 -14 -131 -86
-212 -69 -79 -119 -161 -138 -228 -9 -29 -29 -131 -45 -227 -16 -95 -39 -219
-51 -274 -36 -165 -16 -249 62 -269 59 -15 102 0 164 57 l57 51 -23 -44 c-12
-24 -47 -67 -78 -94 -114 -104 -141 -133 -147 -159 -16 -61 29 -127 99 -147
38 -10 52 -10 96 5 92 31 361 166 400 202 45 40 232 393 255 480 12 46 11 74
-6 230 -16 140 -19 206 -13 308 4 72 8 261 9 420 1 203 8 364 23 535 12 135
26 323 32 418 21 393 -36 760 -166 1077 l-58 140 -7 190 c-4 121 -14 237 -29
320 -25 146 -89 355 -143 460 -32 64 -34 75 -26 115 11 61 11 220 -1 305 -33
229 -110 399 -244 542 -135 144 -320 223 -611 263 -58 8 -109 29 -305 124
-129 63 -306 147 -392 186 -86 40 -166 82 -177 94 -33 36 -41 93 -48 317 l-6
216 56 57 c91 93 138 220 141 378 1 97 -13 130 -71 158 l-30 15 0 121 c-1 169
-16 251 -69 361 -106 220 -321 335 -623 332 -53 0 -125 -7 -161 -14z m336 -95
c227 -58 362 -195 399 -407 18 -98 18 -278 1 -405 -7 -54 -11 -98 -9 -98 1 0
12 18 23 40 22 44 62 75 84 67 33 -13 28 -131 -10 -249 -20 -63 -69 -127 -105
-140 -32 -11 -32 -13 -48 -131 -21 -151 -80 -260 -201 -370 -198 -179 -401
-167 -618 36 -111 104 -169 223 -180 371 -6 84 -9 91 -29 94 -32 5 -89 76
-114 141 -23 59 -36 181 -25 225 13 52 68 16 120 -79 15 -27 16 -28 11 -5 -51
261 -39 524 31 662 103 204 405 316 670 248z m343 -1793 c17 -272 46 -382 121
-467 28 -31 29 -32 12 -5 -11 17 -29 61 -41 99 -21 69 -44 224 -34 239 2 4 18
-2 34 -14 16 -11 123 -63 237 -114 114 -51 257 -116 317 -145 61 -29 121 -57
135 -62 23 -9 16 -14 -75 -45 -144 -49 -214 -60 -513 -83 -275 -20 -426 -41
-472 -65 -57 -29 -136 -154 -155 -242 -9 -45 -1 -41 24 10 29 59 106 144 152
167 87 45 331 75 545 68 113 -3 136 -7 186 -30 70 -33 128 -85 233 -213 99
-120 162 -217 215 -327 51 -106 64 -172 49 -252 -29 -164 -167 -338 -329 -415
-125 -60 -184 -73 -356 -78 -314 -11 -546 43 -663 152 -92 86 -100 127 -119
595 l-7 185 -13 -225 c-17 -317 -29 -425 -50 -474 -67 -149 -249 -223 -597
-241 -225 -11 -421 31 -555 120 -218 145 -312 375 -234 575 61 158 315 500
423 569 84 54 151 65 366 57 216 -7 323 -23 401 -61 62 -30 124 -96 165 -175
33 -65 36 -56 9 31 -40 130 -115 206 -224 228 -74 16 -211 29 -467 46 -229 15
-328 33 -469 83 l-55 20 155 75 c85 41 236 112 335 157 99 45 195 90 213 101
18 10 35 19 38 19 20 0 -19 -227 -52 -299 -22 -49 -23 -53 -5 -36 27 24 57 87
76 160 17 68 45 318 45 405 0 32 3 65 6 73 3 10 33 -15 98 -82 l93 -97 40
-125 c22 -68 62 -195 89 -281 26 -87 50 -156 51 -154 5 5 -64 340 -91 441 -13
50 -23 91 -22 92 1 2 36 -14 77 -35 68 -34 81 -37 159 -37 77 0 92 4 164 38
75 36 78 36 72 15 -3 -13 -26 -106 -51 -208 -25 -102 -52 -209 -60 -239 -8
-30 -13 -56 -11 -58 4 -4 82 213 126 348 57 182 84 234 160 316 38 42 70 81
70 87 0 6 3 6 9 1 4 -6 13 -90 20 -188z m-1763 -578 c89 -28 129 -65 121 -116
-4 -19 -22 -58 -42 -87 -20 -28 -80 -113 -134 -189 -54 -76 -131 -199 -172
-273 -114 -207 -170 -268 -380 -414 -52 -36 -131 -102 -176 -146 -90 -90 -85
-89 -126 -9 -116 233 -122 572 -13 818 90 204 254 351 449 403 88 23 94 19 42
-32 -60 -58 -51 -69 12 -17 91 76 149 95 269 88 45 -3 112 -14 150 -26z m2786
20 c78 -17 127 -41 183 -90 51 -46 52 -40 2 24 -16 21 -27 40 -24 43 9 9 116
-25 183 -57 127 -62 238 -182 311 -335 71 -150 86 -223 87 -409 1 -178 -14
-258 -77 -404 -47 -110 -52 -110 -144 -17 -43 43 -132 117 -198 164 -227 161
-255 192 -380 422 -74 137 -113 196 -220 340 -103 140 -128 205 -94 246 52 63
243 100 371 73z m-3078 -1028 c32 -35 45 -93 46 -196 1 -277 -91 -706 -205
-952 -71 -155 -167 -273 -257 -319 -58 -29 -87 -30 -138 -4 -148 75 -178 404
-75 810 37 143 81 267 115 320 38 59 136 154 215 207 76 51 256 153 271 153 6
0 19 -9 28 -19z m3214 -15 c69 -35 254 -159 302 -202 94 -85 154 -200 213
-409 45 -159 59 -247 64 -391 8 -215 -20 -345 -89 -420 -50 -54 -94 -70 -145
-54 -211 68 -403 472 -482 1015 -22 149 -27 348 -11 404 12 44 47 81 77 81 13
0 45 -11 71 -24z m691 -211 c78 -196 110 -364 121 -645 l8 -205 61 -150 c153
-379 195 -731 152 -1280 -33 -431 -42 -608 -40 -810 2 -105 -1 -248 -5 -320
-6 -87 -4 -170 4 -250 7 -66 14 -160 17 -210 l5 -90 -97 -190 c-104 -201 -131
-246 -171 -272 -32 -21 -40 -11 -20 24 35 61 158 420 163 473 l4 55 -24 -65
c-13 -36 -32 -81 -42 -100 -10 -19 -42 -95 -71 -169 -30 -73 -65 -153 -79
-176 -64 -111 -258 -220 -331 -186 -43 19 -30 47 75 149 111 110 129 144 157
305 19 107 14 209 -14 306 l-19 64 -43 -99 c-24 -54 -54 -140 -66 -191 -27
-109 -52 -161 -94 -197 -35 -29 -50 -32 -68 -14 -19 19 -14 72 18 220 16 75
39 200 51 278 30 205 51 256 160 377 33 38 69 85 80 106 34 65 50 172 56 377
8 275 -11 481 -84 930 -32 191 -37 249 -38 385 l0 160 47 136 c63 180 76 286
60 482 -13 161 -34 278 -87 487 l-36 145 66 138 c37 77 71 135 75 130 5 -4 27
-53 49 -108z m-4605 43 c18 -29 48 -81 65 -116 l32 -63 -45 -187 c-71 -301
-80 -363 -80 -577 0 -208 5 -234 75 -415 33 -84 33 -86 33 -250 -1 -138 -6
-197 -33 -360 -87 -520 -107 -720 -98 -965 8 -201 28 -321 64 -378 14 -23 53
-72 85 -110 94 -109 120 -175 153 -387 9 -58 29 -168 46 -244 31 -151 36 -205
17 -224 -32 -32 -96 8 -129 82 -9 23 -29 87 -43 142 -14 56 -39 132 -56 169
-16 37 -30 73 -30 81 0 36 -17 8 -29 -48 -25 -115 -25 -218 -1 -333 29 -144
40 -166 129 -259 91 -96 114 -127 105 -150 -28 -74 -265 26 -339 143 -12 21
-52 111 -88 202 -83 207 -136 329 -137 308 0 -31 41 -168 105 -348 35 -102 63
-186 61 -189 -2 -2 -23 13 -46 34 -32 30 -63 80 -135 226 -55 111 -97 207
-101 234 -4 27 1 107 11 193 19 163 21 338 6 451 -6 42 -8 147 -4 240 5 153
-5 365 -37 805 -5 72 -10 221 -10 332 0 363 47 615 175 928 l52 130 6 195 c7
208 22 325 64 484 36 139 93 276 113 276 6 0 25 -24 44 -52z m2404 -168 c159
-74 330 -104 592 -104 181 -1 204 2 339 40 24 7 24 7 17 -52 -16 -131 -71
-267 -136 -338 -55 -59 -34 -60 29 -1 69 65 118 177 151 347 11 56 13 59 78
103 37 24 78 52 91 62 l24 17 -5 -94 c-6 -122 -33 -193 -97 -259 -26 -27 -58
-51 -70 -53 -24 -3 -25 -23 -1 -23 22 0 41 -46 35 -85 -20 -123 -102 -270
-198 -356 l-52 -46 54 28 c48 26 181 155 181 176 0 4 5 8 10 8 6 0 10 -30 10
-69 0 -71 -31 -212 -69 -311 -29 -76 -100 -195 -152 -254 l-44 -50 33 20 c19
10 61 48 94 83 32 34 61 61 63 59 2 -2 13 -116 25 -253 36 -417 17 -499 -142
-617 -105 -79 -158 -140 -203 -238 -93 -198 -562 -1120 -596 -1171 -121 -180
-259 -194 -401 -40 -50 54 -87 123 -366 684 l-310 624 -83 74 c-172 153 -200
190 -219 290 -17 89 -11 221 26 598 l6 54 76 -75 c43 -41 86 -81 97 -89 23
-16 27 -22 -54 85 -67 88 -124 203 -155 308 -26 92 -42 231 -29 264 7 20 13
16 63 -45 51 -61 138 -131 163 -131 5 0 -11 19 -37 41 -90 80 -164 212 -185
330 -16 94 -15 112 7 105 9 -3 24 -1 32 4 13 9 12 12 -5 22 -11 6 -44 34 -72
61 -65 62 -93 129 -101 246 l-5 83 91 -62 c58 -38 94 -69 97 -83 37 -171 50
-211 81 -264 41 -67 90 -121 136 -147 l33 -19 -36 39 c-88 95 -140 204 -157
332 -10 72 -18 69 108 48 143 -24 219 -28 360 -16 274 22 417 60 577 154 l58
34 40 -25 c22 -13 68 -37 103 -53z m-1439 -314 l31 -32 0 -194 c-1 -193 -1
-195 -20 -172 -25 30 -78 169 -96 252 -8 36 -17 119 -20 185 l-6 120 40 -64
c22 -35 54 -78 71 -95z m2671 -36 c-13 -99 -70 -279 -102 -330 l-23 -35 -3
173 -2 174 39 47 c21 25 50 68 63 95 l23 48 9 -43 c5 -28 4 -75 -4 -129z
m-3249 -867 c10 -199 2 -407 -19 -508 -28 -131 -82 -291 -149 -445 -102 -232
-190 -490 -209 -608 -23 -143 -42 82 -25 288 13 156 42 348 95 635 49 260 60
364 54 513 l-6 130 62 4 c43 3 79 13 121 35 33 17 63 31 66 32 3 1 8 -34 10
-76z m3813 33 c47 -24 72 -30 122 -30 73 0 69 7 53 -98 -14 -93 -1 -226 56
-553 76 -433 95 -584 95 -765 0 -104 -9 -200 -19 -200 -3 0 -14 42 -24 93 -24
125 -91 320 -175 512 -131 299 -174 442 -193 637 -15 162 -3 446 20 436 3 -2
33 -16 65 -32z m-794 -840 c0 -7 9 -33 20 -58 28 -64 96 -332 119 -473 11 -66
29 -201 40 -300 13 -126 35 -246 70 -398 101 -431 134 -687 133 -1042 0 -594
-108 -1103 -269 -1273 -57 -60 -82 -56 -145 22 -89 111 -114 173 -148 367 -17
96 -58 278 -92 404 -70 265 -107 421 -139 590 -20 102 -23 151 -23 320 1 225
-10 169 133 729 39 154 71 290 71 302 0 52 20 26 83 -104 234 -485 256 -560
264 -882 5 -213 -5 -310 -53 -514 -29 -123 -103 -396 -133 -493 -10 -35 -17
-63 -15 -63 20 0 151 394 193 580 40 181 51 275 51 457 0 307 -46 485 -209
812 -146 291 -221 527 -221 695 0 92 17 130 87 198 50 49 163 137 176 138 4 0
7 -6 7 -14z m-2228 -45 c78 -59 156 -144 176 -191 26 -61 2 -244 -54 -417 -14
-43 -81 -193 -149 -333 -192 -397 -220 -511 -219 -885 0 -218 2 -238 32 -380
17 -82 49 -207 72 -276 43 -137 115 -318 132 -334 8 -7 9 -4 3 10 -46 116
-139 454 -176 640 -33 170 -38 470 -10 630 31 177 73 295 178 508 52 106 106
217 120 247 l25 55 33 -135 c192 -790 189 -774 189 -945 -1 -171 -21 -277
-159 -820 -51 -203 -103 -424 -115 -489 -33 -181 -82 -297 -165 -383 -51 -53
-79 -55 -122 -10 -150 156 -254 597 -270 1137 -10 358 38 774 132 1150 39 156
63 288 80 441 25 230 56 404 96 544 31 106 93 285 100 285 3 0 35 -22 71 -49z
m1968 -678 c0 -40 -49 -254 -96 -415 -48 -168 -85 -316 -139 -563 -25 -115
-70 -295 -100 -400 -152 -538 -176 -629 -199 -740 -13 -66 -30 -170 -37 -232
-7 -62 -14 -111 -16 -109 -15 15 -136 660 -164 869 -27 207 -49 472 -49 589
l0 96 61 53 c33 29 79 79 101 113 23 33 145 267 271 520 126 254 245 487 264
520 l36 58 33 -163 c19 -90 34 -178 34 -196z m-1443 -193 c135 -272 259 -515
276 -540 16 -25 63 -76 103 -115 l74 -70 -11 -160 c-14 -214 -44 -494 -75
-695 -25 -163 -101 -558 -127 -655 l-14 -50 -6 35 c-4 19 -11 76 -17 125 -19
160 -68 383 -150 685 -82 302 -170 646 -210 825 -13 55 -54 217 -91 360 -38
143 -76 305 -85 360 -19 110 -15 159 28 340 23 94 23 95 41 72 10 -12 129
-245 264 -517z m-107 -1042 c0 -7 36 -141 80 -298 145 -517 178 -686 187 -960
8 -261 -26 -410 -115 -504 -94 -98 -175 -87 -291 40 -206 225 -211 458 -25
1104 59 205 132 501 140 573 4 31 11 57 15 57 5 0 9 -6 9 -12z m1398 -398 c17
-69 55 -211 86 -317 30 -105 65 -235 76 -290 27 -125 38 -361 20 -441 -28
-132 -135 -289 -236 -348 -82 -48 -168 -30 -224 48 -113 155 -119 605 -15
1023 30 120 122 445 182 645 l26 85 28 -140 c15 -77 41 -196 57 -265z m-1719
-1148 c34 -81 83 -153 166 -241 41 -44 77 -92 81 -106 22 -87 -26 -315 -93
-450 -25 -48 -25 -49 -4 -30 57 50 151 299 151 399 0 73 8 86 49 86 44 0 117
32 153 67 15 15 31 24 34 20 7 -7 -20 -177 -46 -292 -32 -136 -88 -284 -169
-440 -100 -195 -134 -278 -170 -417 -69 -266 -81 -495 -57 -1103 9 -236 18
-482 20 -545 1 -63 2 187 2 555 -1 727 1 767 55 986 30 123 84 280 124 359 35
69 112 182 118 173 8 -12 45 -242 63 -393 10 -79 18 -212 18 -320 1 -228 -12
-302 -93 -547 -100 -298 -169 -598 -205 -888 -28 -225 -30 -284 -10 -438 17
-140 17 -149 -1 -264 -19 -126 -19 -116 16 -330 16 -95 3 -143 -47 -173 -19
-12 -44 -20 -55 -17 -25 7 -34 -11 -60 -110 -23 -91 -49 -132 -137 -215 -83
-77 -137 -102 -208 -96 -29 3 -60 10 -68 17 -34 28 -13 110 44 175 52 59 25
55 -34 -6 -40 -41 -58 -70 -72 -114 -21 -66 -38 -75 -105 -55 -69 21 -64 73
19 194 l56 82 -40 -34 c-57 -49 -101 -109 -120 -165 -16 -48 -17 -48 -53 -42
-51 8 -63 27 -46 81 14 47 36 82 98 158 22 26 37 50 35 53 -12 12 -139 -130
-166 -186 -28 -59 -28 -59 -51 -43 -21 14 -23 21 -17 66 8 71 58 141 165 232
108 92 151 145 201 250 37 76 89 217 104 279 6 26 5 28 -8 17 -14 -12 -16 -6
-16 50 1 35 7 93 15 129 47 205 16 572 -110 1304 -65 384 -75 469 -75 649 0
195 22 380 70 582 28 117 83 305 90 305 4 0 18 -37 31 -82 26 -96 29 -198 15
-638 -9 -276 -9 -275 49 -1095 8 -110 19 -301 26 -425 7 -123 15 -218 17 -210
5 14 -9 324 -34 740 -8 135 -19 335 -25 445 -11 187 -8 486 7 920 6 165 5 174
-25 305 -17 74 -36 194 -42 265 -12 135 -6 425 9 451 7 13 15 10 44 -18 l35
-33 6 -115 c6 -122 53 -509 67 -544 9 -24 3 157 -10 355 -6 74 -10 174 -10
221 0 93 2 97 93 193 21 22 52 59 69 83 18 23 35 39 38 35 4 -5 17 -32 29 -61z
m2024 1 c30 -38 78 -92 107 -122 l53 -53 -7 -107 c-4 -58 -11 -153 -16 -211
-5 -58 -9 -157 -8 -220 l0 -115 23 160 c13 88 31 234 40 325 9 91 19 174 21
185 3 20 61 71 70 62 3 -2 9 -74 14 -160 12 -218 -1 -389 -46 -589 l-36 -163
8 -320 c12 -480 3 -811 -31 -1210 -18 -212 -45 -700 -44 -780 2 -66 11 37 23
255 9 159 24 366 41 555 38 427 47 607 44 880 -6 630 -6 622 20 718 13 48 27
87 31 87 7 0 68 -190 95 -299 26 -102 54 -314 61 -456 10 -192 -2 -296 -100
-880 -58 -347 -89 -588 -107 -829 -12 -156 -12 -171 9 -289 32 -180 28 -284
-8 -216 -7 11 -14 18 -17 16 -2 -3 9 -36 25 -74 17 -37 42 -99 57 -138 15 -38
48 -110 73 -158 41 -80 55 -97 157 -187 152 -134 192 -197 183 -291 -4 -47
-32 -51 -54 -7 -32 62 -86 128 -132 160 l-46 31 52 -62 c84 -101 107 -166 72
-201 -26 -26 -80 -27 -80 -2 -1 36 -41 105 -94 157 -67 67 -94 73 -35 7 65
-74 103 -165 81 -199 -10 -16 -95 -38 -115 -30 -10 4 -17 17 -17 33 0 41 -59
141 -108 185 -55 48 -67 44 -22 -8 37 -42 80 -127 80 -160 0 -18 -10 -25 -52
-38 -72 -21 -106 -19 -165 10 -58 29 -161 132 -190 190 -12 22 -25 70 -31 107
-14 88 -21 100 -68 104 -86 8 -108 75 -80 246 20 122 20 172 1 273 -13 65 -14
97 -5 170 21 180 22 225 11 356 -14 163 -34 309 -67 494 -32 180 -52 258 -125
491 -142 457 -149 644 -47 1262 6 39 14 72 18 72 11 0 115 -191 148 -272 44
-106 88 -281 112 -449 25 -168 28 -341 18 -984 -4 -269 -3 -390 2 -300 49 888
47 1189 -11 1493 -28 145 -66 247 -179 482 -129 267 -195 474 -217 681 l-6 60
52 -33 c42 -25 67 -33 116 -36 l64 -4 5 -67 c9 -101 34 -198 77 -289 40 -87
78 -147 87 -138 2 3 0 11 -5 18 -15 20 -72 168 -88 229 -19 70 -30 197 -21
244 5 27 26 57 75 109 80 84 130 157 167 244 15 34 28 62 29 62 2 0 27 -30 58
-67z"/>
<path d="M4755 10665 c-227 -43 -372 -127 -426 -248 -21 -46 -24 -67 -24 -182
1 -122 3 -136 34 -223 32 -88 33 -96 22 -150 -30 -148 -21 -309 24 -458 10
-32 15 -92 15 -170 0 -187 39 -370 135 -639 26 -71 53 -149 62 -173 24 -67 28
-41 4 30 -25 75 -94 366 -117 493 -17 97 -30 328 -21 367 l7 25 137 -3 c116
-2 129 -1 83 7 -143 26 -212 64 -250 139 -42 82 -50 291 -14 376 23 55 47 64
206 74 78 6 186 17 238 25 109 16 131 10 156 -50 17 -41 20 -378 4 -436 -5
-19 -24 -48 -41 -65 -30 -28 -30 -29 -8 -34 56 -14 77 -85 78 -266 1 -61 4
-147 8 -190 6 -68 8 -74 14 -44 4 19 11 121 15 225 7 204 16 243 61 272 l24
16 -24 26 c-49 52 -52 66 -55 266 -3 208 3 236 59 278 26 18 29 18 120 2 52
-9 162 -19 246 -22 129 -5 155 -9 172 -25 53 -49 70 -266 30 -375 -41 -111
-114 -160 -284 -191 -48 -9 -46 -10 40 -11 50 0 110 4 135 10 68 16 73 4 67
-166 -7 -179 -69 -511 -136 -725 -11 -36 -15 -58 -8 -49 13 18 122 345 156
469 36 129 51 240 51 377 0 93 4 144 15 170 44 114 56 259 33 439 -11 93 -11
96 18 177 26 74 29 94 29 207 0 107 -3 132 -22 172 -66 144 -273 249 -519 265
-116 7 -156 0 -200 -40 l-36 -31 -22 26 c-11 15 -34 32 -49 37 -37 14 -155 12
-242 -4z m247 -64 l33 -29 0 -224 c0 -218 -1 -224 -24 -262 -39 -63 -157 -101
-353 -113 -107 -7 -182 10 -227 50 -38 35 -63 102 -68 187 -10 144 30 230 140
301 94 61 282 116 404 118 56 1 66 -2 95 -28z m358 14 c165 -32 293 -88 354
-155 98 -109 102 -336 7 -431 -28 -28 -50 -39 -96 -49 -101 -21 -341 7 -425
50 -88 45 -99 83 -99 335 0 219 1 224 60 249 44 19 105 20 199 1z"/>
<path d="M5377 7175 c-26 -218 -38 -708 -17 -675 5 8 10 90 10 182 0 92 5 246
11 342 11 179 9 259 -4 151z"/>
<path d="M4757 7100 c3 -80 9 -246 13 -370 7 -213 7 -209 4 75 -2 165 -8 332
-13 370 -7 54 -8 38 -4 -75z"/>
<path d="M4177 1530 c10 -144 23 -190 19 -70 -2 58 -8 116 -14 130 -9 19 -10
6 -5 -60z"/>
<path d="M5948 1580 c-4 -14 -7 -63 -7 -110 l2 -85 9 75 c4 41 7 91 6 110 -3
32 -4 33 -10 10z"/>
</g>
</svg>
