<?xml version="1.0" encoding="UTF-8"?>
<!-- Created with Inkscape (http://www.inkscape.org/) -->
<svg width="1024" height="1536" version="1.1" viewBox="0 0 1024 1536" xmlns="http://www.w3.org/2000/svg">
 <path d="m391.82 1470c-3.575-0.7739-10.775-3.4884-16-6.0322-11.672-5.6824-13.134-6.15-25-7.9959-11.248-1.7499-16.205-4.4669-17.984-9.8582-2.4484-7.4187 1.5746-13.316 17.342-25.423 5.4619-4.1937 10.717-8.2999 11.679-9.1249 3.5401-3.038 5.0079-7.9329 5.9215-19.748 0.49982-6.4638 1.9499-15.802 3.2224-20.752 2.1519-8.3707 2.3101-10.923 2.2627-36.5-0.0503-27.149-1.563-49.803-5.0413-75.5-2.6971-19.925-7.3217-44.865-9.8276-53-5.7916-18.801-7.0176-27.5-7.0467-50-0.0364-28.042 2.6014-42.421 14.584-79.5 3.7564-11.624 4.111-13.727 5.0599-30 0.56122-9.625 0.80085-23.575 0.5325-31-0.44918-12.429-0.85643-14.73-5.1325-29-5.1739-17.266-9.5589-37.912-12.213-57.5-2.4883-18.367-2.4972-64.743-0.0167-87 3.8836-34.846 8.6114-61.102 17.731-98.468 5.3537-21.936 7.2466-32.774 10.946-62.672 0.55387-4.4768 1.8392-11.452 2.8562-15.5 1.4076-5.6029 1.6635-8.793 1.0717-13.36-2.1781-16.809-0.36291-49.698 4.0975-74.241 1.1344-6.242 1.7623-12.295 1.3954-13.451s-4.7875-9.3485-9.8234-18.205c-10.844-19.071-17.651-33.331-22.594-47.33l-3.6108-10.227-4.2303 14.65c-2.3267 8.0572-7.4675 22.559-11.424 32.227l-7.1938 17.578 0.44621 12c2.0625 55.468-0.3047 70.525-18.001 114.5-11.761 29.225-18.008 50.422-18.008 61.097 0 6.6741 1.8475 10.686 9.0976 19.754 11.316 14.154 15.302 24.765 16.861 44.883 0.50145 6.4707 2.0653 16.49 3.4752 22.265 2.8544 11.692 3.262 20.399 1.1872 25.364-3.2188 7.7037-11.222 9.8178-19.283 5.0936-2.3858-1.3982-4.3379-2.2758-4.3379-1.9503 0 2.0976 3.9718 7.1008 11.444 14.416 4.7326 4.6332 8.8758 9.5039 9.2071 10.824 2.5175 10.031-16.461 15.101-34.642 9.2555-9.6506-3.1031-20.301-10.311-28.517-19.3-8.0642-8.8227-17.191-26.562-20.685-40.203-2.0613-8.0487-2.2707-10.85-1.9813-26.5 0.93692-50.666-0.0906-97.543-2.5866-118-3.9162-32.099-4.5131-42.024-3.9796-66.179 0.79331-35.919 4.9933-54.095 20.107-87.017 3.3342-7.2629 3.6231-8.7548 5.1327-26.5 3.1687-37.249 9.1274-63.107 18.505-80.304 2.3829-4.3697 2.4572-5.137 2.5656-26.5 0.10209-20.114 0.33701-22.93 2.7402-32.848 9.7035-40.049 36.642-62.941 78.246-66.493 13.78-1.1764 15.177-1.61 24.23-7.5181 3.6923-2.4097 15.038-8.5447 25.213-13.633 38.431-19.219 45.969-26.603 45.99-45.047 0.0116-10.121-1.9413-18.354-6.1518-25.932-13.094-23.567-15.838-31.329-15.838-44.787 0-8.6628 1.7457-13.183 6.4889-16.801 3.1509-2.4033 3.2186-2.6282 3.8381-12.752 2.2095-36.112 20.758-62.364 49.673-70.302 4.6725-1.2829 10.155-1.7887 19.5-1.7989 14.85-0.01635 21.638 1.4159 33.306 7.0283 13.099 6.3004 25.86 21.39 31.199 36.895 2.7254 7.9132 4.9856 22.175 4.9906 31.49 4e-3 7.4119 0.0464 7.5338 3.6073 10.375 4.7252 3.7703 6.4005 8.0621 6.3793 16.343-0.0345 13.481-3.0561 22.264-15.953 46.368-6.0738 11.352-7.2298 25.816-2.8704 35.914 4.1649 9.6472 11.473 14.869 43.713 31.236 12.995 6.5967 27.452 14.173 32.127 16.837 8.0521 4.5876 9.0796 4.9006 19.5 5.9409 12.71 1.2688 17.941 2.3079 25.253 5.0155 28.299 10.48 46.106 31.936 52.77 63.582 2.0531 9.7501 3.0225 34.481 1.7204 43.889l-0.96886 7 4.896 9.7423c8.4748 16.864 12.328 35.096 15.777 74.66 1.6527 18.958 2.2345 22.525 4.3613 26.737 14.768 29.248 21.692 61.006 21.692 99.496 0 18.989-2.9469 58.548-5.2417 70.364-0.70032 3.6059-1.2008 17.172-1.2544 34-0.0573 18.007-0.53396 30.221-1.3356 34.223-1.0354 5.169-0.9858 8.2102 0.29263 17.958 3.6729 28.006 0.35093 47.428-11.771 68.819-6.9776 12.313-20.267 25.752-30.436 30.779-10.535 5.2083-20.726 7.2694-29.09 5.8834-6.3916-1.0591-10.473-3.1218-12.483-6.3082-1.9862-3.1487 0.45276-7.3339 9.2648-15.899 7.538-7.3264 13.425-14.956 11.54-14.956-0.31139 0-1.8691 0.96328-3.4615 2.1406-3.5342 2.613-11.509 3.4808-15.002 1.6326-6.8683-3.6332-8.6322-14.188-4.9755-29.773 1.0969-4.675 2.6504-14.8 3.4522-22.5 0.80182-7.7 1.9741-16.25 2.605-19 1.8943-8.2562 7.1469-18.478 14.326-27.878 9.0274-11.82 9.9699-14.245 9.1836-23.622-1.2404-14.792-6.573-32.805-18.719-63.233-4.3322-10.853-8.7873-23.003-9.9001-27-5.7878-20.789-8.0101-47.856-5.9884-72.935l1.2463-15.46-6.4907-14.936c-7.1558-16.467-13.741-34.421-16.298-44.436-0.91283-3.575-1.8788-7.175-2.1466-8s-1.959 2.5972-3.7584 7.6049c-4.893 13.618-13.472 31.663-22.898 48.167-4.6267 8.1004-8.7166 15.72-9.0887 16.933-0.37207 1.2128 0.23163 7.2878 1.3415 13.5 4.1134 23.022 5.3354 45.075 4.0893 73.795-0.3834 8.8365-0.093 13.237 1.254 19 0.96411 4.125 2.4436 14.25 3.2877 22.5 2.0514 20.05 2.5937 22.994 9.5793 52 8.8873 36.903 12.651 57.192 17.067 92 1.9705 15.533 2.2854 22.592 2.2974 51.5 9e-3 22.677-0.41392 36.408-1.3105 42.5-3.4014 23.113-7.2133 40.36-12.708 57.5-4.0248 12.554-4.5783 16.783-4.5115 34.473 0.11156 29.57 1.3563 41.156 6.0199 56.027 5.053 16.114 9.4265 33.048 11.751 45.5 1.3946 7.4714 1.7535 14.411 1.6805 32.5-0.0928 22.982-0.0957 23.012-3.8277 38.5-13.402 55.621-18.001 92.053-18.051 143-0.0254 25.784 0.17989 29.406 2.1538 38 1.2 5.225 2.4602 12.875 2.8005 17 1.0786 13.078 2.0698 15.451 8.9086 21.329 3.36 2.8881 9.6074 7.8393 13.883 11.003s9.1028 7.586 10.727 9.8279c8.3791 11.567 2.9418 18.372-17.031 21.314-8.8439 1.303-12.024 2.318-20.47 6.5346-12.542 6.2611-23.034 8.9909-34.555 8.9909-15.529 0-26.478-4.822-30.932-13.622-3.9277-7.7603-3.927-16.974 3e-3 -32.378 2.7324-10.711 3.1101-13.645 2.6394-20.5-0.30212-4.4-1.4732-10.853-2.6023-14.339-2.8298-8.7375-2.663-17.916 0.5537-30.48 3.088-12.061 2.904-19.758-1.1158-46.681-7.1031-47.572-13.609-76.385-21.403-94.792-13.468-31.805-14.296-54.872-4.4548-123.98l1.7479-12.274-2.2936-6.2255c-10.453-28.372-14.706-45.023-17.555-68.726-3.8748-32.242-4.8813-38.481-9.0345-56-14.045-59.245-20.247-98.609-20.607-130.8-0.0597-5.3359-0.4087-12.402-0.77556-15.702-0.54412-4.8944-0.81124-2.8676-1.4497 11-1.8974 41.215-6.5485 70.594-19.551 123.5-3.7374 15.206-6.9989 31.518-8.5982 43-3.9214 28.154-6.3643 42.557-8.9899 53-2.4591 9.7814-9.7228 31.415-12.154 36.2-1.9266 3.7913-1.7499 6.9002 1.5521 27.3 1.6025 9.9 3.1853 20.488 3.5174 23.528 1.6485 15.092 2.4912 27.416 2.4937 36.472 3e-3 8.9918-0.36046 13.203-2.527 29.316-0.99128 7.3726-5.1864 20.905-9.3571 30.184-6.2731 13.956-10.688 30.709-15.549 59-1.2758 7.425-3.9441 22.95-5.9296 34.5-5.1932 30.21-5.3961 35.165-2.0879 51 3.09 14.791 2.9608 22.105-0.56662 32.063-3.0749 8.681-2.815 16.561 1.052 31.901 4.9772 19.744 3.4313 29.922-5.6908 37.468-7.8948 6.5313-24.061 8.7954-39.279 5.5009z"/>
 <g id="shoulders" fill="#fff">
  <path d="m739.18 407.97c0.34976-2.5518 0.63592-8.5942 0.63592-13.428 0-41.86-21.038-72.739-55.124-80.911-9.06-2.1719-21.643-2.6035-28.668-0.98321-10.431 2.406-21.373 10.274-23.128 16.63-2.6406 9.5634 9.2899 26.621 31.81 45.479 18.174 15.219 27.965 20.699 56.11 31.401 5.225 1.9868 11.075 4.2314 13 4.9879 4.8274 1.8972 4.6547 1.9995 5.3641-3.1762z"/>
  <path d="m314.22 403.56c24.539-8.645 41.788-19.863 62.1-40.388 12.148-12.276 17.872-20.242 19.689-27.401 1.6153-6.364-1.493-12.099-9.2876-17.137-8.5308-5.5137-12.53-6.5136-25.902-6.4753-9.1055 0.026-13.062 0.51295-19 2.3385-21.283 6.5428-36.929 20.66-45.548 41.096-1.75 4.1493-3.966 10.915-4.9247 15.035-1.878 8.071-3.2262 32.449-2.1205 38.343l0.67685 3.6079 5.2084-2.0609c2.8646-1.1335 11.464-4.2646 19.109-6.9579z"/>
 </g>
 <g id="upperback" fill="#fff">
  <path d="m541.45 331.2c7.1053-0.0772 11.411 0.30061 22.118 0.34733 1.4899 6e-3 10.497 0.2076 19.434 0.50108s16.25 0.69778 16.25 0.89845c0 0.20066-2.1893 6.3251-4.865 13.61-5.2392 14.264-8.7582 25.987-12.081 40.245-6.2448 26.8-13.9 42.311-40.276 81.613l-20.278 30.215-0.79271-6.9144c-0.43598-3.8029 0.68908-46.977-0.43459-95.914-1.7602-76.659-5.7308-64.312 20.925-64.602z"/>
  <path d="m638.32 435.2c3.85-1.4661 9.475-4.2956 12.5-6.2878 11.603-7.6414 27-24.832 27-30.146 0-3.9457-21.541-21.156-26.479-21.156-3.3098 0-6.629 3.0172-15.779 14.343-4.5129 5.5861-10.014 12.143-12.223 14.571-4.0285 4.4255-15.001 13.086-16.58 13.086-0.46288 0 2.3991-3.2726 6.36-7.2724 7.7532-7.8294 15.833-18.658 23.814-31.914 6.6051-10.972 6.4651-14.031-1.21-26.446-7.0003-11.323-12.56-17.026-17.504-17.953-16.175-3.0345-36.374 36.59-36.393 71.392-6e-3 10.626 1.5051 15.517 6.0667 19.638 12.376 11.181 33.498 14.592 50.429 8.1442z"/>
  <path d="m491.62 330.25c-7.095 0.39025-12.975 1.0829-24.074 0.93403-1.4898-0.02-11.084 0.012-20.021 0.30551-8.9375 0.29348-16.25 0.69778-16.25 0.89845 0 0.20066 2.1893 6.3251 4.865 13.61 5.2392 14.264 8.7582 25.987 12.081 40.245 6.2448 26.8 13.9 42.311 40.276 81.613l20.278 30.215 0.79271-6.9144c0.43598-3.8029-0.68908-46.977 0.43459-95.914 1.7602-76.659 1.4971-66.086-18.383-64.993z"/>
  <path d="m426.65 435.59c7.3843-2.5758 13.789-7.1494 16.492-11.776 2.7787-4.7578 3.9673-17.621 2.6882-29.093-1.5748-14.123-4.4971-24.363-10.447-36.608-7.6753-15.795-16.596-23.958-24.118-22.07-4.0695 1.0214-11.155 8.2767-17.523 17.943-7.3937 11.223-8.0138 14.066-4.5316 20.778 5.0354 9.7055 18.167 28.276 25.613 36.221 6.182 6.5961 6.8913 7.663 4.0342 6.068-5.1966-2.9011-16.533-14.597-25.865-26.685-8.8326-11.441-10.367-12.75-14.946-12.75-5.1769 0-27.223 17.114-27.223 21.132 0 8.0973 17.175 25.507 33.03 33.48 13.444 6.7609 29.444 8.0168 42.797 3.3592z"/>
 </g>
 <g id="triceps" fill="#fff">
  <path d="m710.08 546.86c-1.3793-10.453-0.91184-49.222 0.6588-54.634 4.2244-14.555 19.104-16.551 31.439-4.2156 3.2481 3.2481 7.0597 8.6921 9.9318 14.185 7.117 13.612 6.9509 13.652 6.2811-1.4891-1.6937-38.286-9.9993-65.872-23.633-78.494-8.0832-7.4836-23.821-14.404-36.437-16.023-8.9522-1.1486-15.235 4.2867-18.982 16.421-2.3092 7.4789-3.1303 30.537-1.568 44.035 2.9573 25.551 17.931 69.111 28.262 82.215 1.6259 2.0625 3.3723 3.75 3.8809 3.75 0.54703 0 0.61482-2.3484 0.16597-5.75z"/>
  <path d="m322.86 547.05c7.7296-11.235 16.972-35.119 23.385-60.434 3.5269-13.922 4.5698-22.332 4.5698-36.854 0-20.054-3.5551-34.472-10.03-40.675-2.7722-2.6559-3.1876-2.7423-10.677-2.2209-20.348 1.4166-37.596 12.311-46.5 29.37-7.6136 14.588-13.513 41.765-14.408 66.379l-0.4912 13.5 5.5236-10.5c9.3341-17.743 18.165-25.485 29.083-25.495 6.9072-6e-3 10.719 2.8684 13.615 10.268 2.0302 5.1878 2.248 7.5155 2.3132 24.727 0.0396 10.45-0.31794 23.221-0.79453 28.381-0.96937 10.494-0.57973 10.808 4.412 3.553z"/>
 </g>
 <g id="lats" fill="#fff">
  <path d="m613.68 569.69c4.6249-2.3594 9.3634-7.5043 15.842-17.201 14.467-21.652 27.684-49.4 33.281-69.872 3.8305-14.01 5.1077-45.001 2.0579-49.936-0.63257-1.0235-2.8134-0.39273-9.8521 2.8496-4.9718 2.2902-13.46 5.3087-18.864 6.7076-8.3494 2.1618-11.325 2.471-19.824 2.0606-11.894-0.57443-25.691-4.6109-35.008-10.242l-5.9919-3.6214-4.563 5.0726c-2.5096 2.7899-6.8972 8.9881-9.75 13.774-4.3649 7.3221-5.187 9.4798-5.187 13.614 0 5.442-0.17138 5.0901 21.542 44.221 16.075 28.969 17.105 31.095 18.972 39.14 3.7353 16.103 4.8837 19.679 7.2083 22.441 2.8768 3.4189 4.9749 3.624 10.136 0.99096z"/>
  <path d="m422.53 569.36c3.2039-3.5039 4.9418-7.5954 7.1251-16.774 2.831-11.902 3.9757-14.266 24.105-49.788 9.8764-17.428 18.47-33.771 19.097-36.317 1.017-4.1293 0.88171-5.2696-1.252-10.552-2.7062-6.7-10.41-18.627-14.664-22.702l-2.8368-2.7179-9.8921 5.0647c-11.489 5.8822-18.549 7.9011-30.505 8.7233-13.293 0.91415-30.687-3.2737-44.392-10.688l-5.3337-2.8856-1.2165 7.194c-1.985 11.739-0.70688 31.857 2.9051 45.728 7.8994 30.337 34.057 77.594 47.65 86.084 3.9697 2.4796 6.7045 2.3701 9.2087-0.36864z"/>
 </g>
 <g id="elbows" fill="#fff">
  <path d="m752.34 596.16c1.7924-1.9005 4.0345-5.613 4.9826-8.25 3.8271-10.646 2.7626-44.098-2.001-62.876-5.821-22.947-17.484-37.419-30.297-37.596-5.0069-0.0691-7.7478 1.4347-9.9467 5.4574-2.6325 4.8158-2.5569 37.818 0.11268 49.22 3.929 16.781 10.508 32.443 19.823 47.193 6.9879 11.065 11.624 12.898 17.327 6.8514z"/>
  <path d="m290.98 593.23c6.2761-7.8046 15.01-25.677 18.741-38.353 5.7809-19.637 7.8902-45.874 4.5832-57.01-1.9182-6.4592-6.1246-10.266-11.31-10.235-8.8097 0.0527-16.398 6.6279-23.224 20.125-7.2025 14.24-10.256 30.537-10.371 55.353-0.0948 20.486 1.3006 26.614 7.4622 32.776 5.4205 5.4205 8.015 4.9322 14.118-2.6574z"/>
 </g>
 <g id="lower_back" fill="#fff">
  <path d="m632.82 632.57c0-22.789-3.5866-54.822-6.7763-60.521-0.77553-1.3858-1.2808-1.2582-3.9668 1.002-6.9727 5.8672-14.745 7.0776-20.476 3.1887l-3.4983-2.374-1.5459 2.624c-5.3679 9.1115-23.736 52.191-23.736 55.668 0 1.1562 1.697 1.4564 8.25 1.4594 9.4152 4e-3 22.911 2.012 30.25 4.5001 5.2828 1.7909 13.322 6.1376 17.5 9.4623 1.375 1.0941 2.8375 1.9993 3.25 2.0116 0.4125 0.0122 0.75-7.6472 0.75-17.021z"/>
  <path d="m409.73 641.66c8.6563-4.4161 26.709-8.0128 40.337-8.0363 2.8495-5e-3 4.75-0.45872 4.75-1.1342 0-2.8669-16.697-41.787-22.783-53.108-3.607-6.7091-3.6284-6.7273-5.6686-4.8166-5.1974 4.8672-12.25 5.2598-18.887 1.0511-2.6018-1.65-4.8841-3-5.0717-3-0.34401 0-2.6835 11.986-4.6846 24-1.2186 7.3165-2.4881 50.037-1.5589 52.459 0.49418 1.2878 1.4371 0.9302 5.2786-2.0021 2.5723-1.9635 6.302-4.399 8.2883-5.4124z"/>
  <path d="m410.3 701.19c11.982-18.194 28.46-32.338 47.202-40.514 7.6898-3.3548 8.7833-4.1398 8.5474-6.1355-0.50314-4.2558-4.92-8.6629-10.974-10.95-4.9726-1.8783-7.1836-2.1105-16.255-1.707-23.604 1.0497-37.806 10.696-44.119 29.967-3.909 11.931-3.1611 40.427 1.3586 51.766 0.9344 2.3442 1.2332 1.9906 4.7952-5.6757 2.0893-4.4966 6.3399-12.035 9.4458-16.751z"/>
  <path d="m553.87 663.55c5.0434-13.731 15.777-42.648 25.954-64.478l12.949-28-0.10046-10.5c-0.11631-12.157-2.6912-21.279-9.5971-34-4.1891-7.7164-32.727-57.153-33.446-57.94-0.22121-0.24184-2.6685 1.7832-5.4385 4.5-8.546 8.3821-18.413 24.955-22.783 38.268-3.0646 9.3351-3.9662 25.136-4.7175 82.672-0.37345 28.6-0.98155 54.475-1.3513 57.5l-0.67235 5.5-0.72218-8.5c-0.3972-4.675-1.1143-35.725-1.5935-69-0.92388-64.148-0.83363-63.012-6.0384-76-3.619-9.0309-11.081-20.683-18.134-28.318l-6.6277-7.1742-4.5052 6.9959c-4.1495 6.4435-13.829 22.743-27.611 46.496-11.065 19.07-14.598 29.936-13.982 43 0.33831 7.1752 0.86799 8.6043 12.231 33 2.4878 12.414 19.895 49.11 22.656 56.028 19.067 47.778 72.469 40.068 83.531 9.9502z"/>
  <path d="m633.21 719.04c1.4756-5.4173 1.9107-10.637 1.9948-23.929 0.0946-14.96-0.15828-17.841-2.1072-24.007-6.742-21.33-21.241-30.127-48.348-29.332-10.583 0.31008-11.921 0.56885-15.627 3.0218-4.3887 2.9048-8.7998 9.0712-7.993 11.174 0.27554 0.71806 3.823 2.5172 7.8833 3.998 22.235 8.1096 45.159 31.548 56.48 57.749 2.1065 4.875 4.28 8.7265 4.83 8.5589 0.55-0.16758 1.8493-3.4226 2.8873-7.2334z"/>
 </g>
 <g id="forearm" fill="#fff">
  <path d="m298.69 763.98c-0.3941-3.2613-9.1658-11.803-9.0927-24.153 0.0954-16.099 5.3138-34.236 20.428-71 6.1261-14.901 10.083-27.899 12.634-41.5 1.5264-8.1389 1.8682-14.653 1.8366-35-0.0248-15.942-0.42887-25.683-1.1152-26.885-0.99985-1.751-1.5477-2.5836-5.1566 1.0675-4.8571 4.9138-18.773 23.464-23.284 31.671-4.1079 7.4733-5.4242 17.406-8.8376 40.543-1.42 9.625-4.6128 28.506-6.7665 42.256-4.7461 30.301-5.7874 44.558-5.4469 55.779 0.14188 4.675 0.14037 11.338-3e-3 14.638l-0.19218 5.0666-1.9678-3.6357c-3.0256-5.5901-2.6105-12.186 0.76356-41 1.3847-11.825 3.8773-33.875 5.5391-49s3.6931-32.7 4.514-39.056c2.1091-16.33 2.4298-15.592-3.192-18.441-2.6716-1.3538-6.1523-3.6674-7.904-5.1413-1.7516-1.4739-3.8888-2.8225-4.0732-2.6165-0.45407 0.50713-6.6092 32.38-8.4483 44.186-2.4096 15.467-5.1426 44.769-5.267 54.447-0.18204 14.167-1.4085 5.7738-1.5164-9.3778-0.18515-25.994 3.644-60.502 11.355-102.5 0.80785-4.4 1.4845-12.02 1.5037-16.932 0.0386-9.8708-1.6204-27.937-2.7553-27.937-1.2382 0-10.45 18.034-13.266 27.314-9.0574 29.845-9.03 58.806-3.5759 108.16 1.3676 12.375 2.8919 26.671 3.4718 31.896 0.65419 5.8938 0.97775 14.606 0.26308 22.965-1.9417 22.711-0.0182 35.665 0.80863 37.779 5.203 13.299 50.305 9.3301 48.743-3.5914z"/>
  <path d="m729.61 762.46c0.3941-3.2613 9.1658-11.803 9.0927-24.153-0.0954-16.099-5.3138-34.236-20.428-71-6.1261-14.901-10.083-27.899-12.634-41.5-1.5264-8.1389-1.8682-14.653-1.8366-35 0.0248-15.942 1.1134-26.367 1.7997-27.569 0.99985-1.751 0.86321-1.8991 4.4722 1.752 4.8571 4.9138 18.773 23.464 23.284 31.671 4.1079 7.4733 5.4242 17.406 8.8376 40.543 1.42 9.625 4.6128 28.506 6.7665 42.256 4.7461 30.301 6.4719 44.949 6.1314 56.17-0.14188 4.675 0.25076 10.067 0.39413 13.367l0.38775 3.4043 0.69664-1.0934c3.4157-5.3607 2.6105-12.186-0.76356-41-1.3847-11.825-3.8773-33.875-5.5391-49s-3.6931-32.7-4.514-39.056c-2.1091-16.33-2.4298-15.592 3.192-18.441 2.6716-1.3538 6.1523-3.6674 7.904-5.1413 1.7516-1.4739 3.8888-2.8225 4.0732-2.6165 0.45407 0.50713 6.5363 32.392 8.4483 44.186 3.6808 22.703 6.6213 51.623 5.7559 54.936-0.50374 1.9282 0.9196 5.2848 1.0275-9.8667 0.18515-25.994-3.644-60.502-11.355-102.5-0.80785-4.4-1.4845-12.02-1.5037-16.932-0.0386-9.8708 1.6204-27.937 2.7553-27.937 1.2382 0 10.45 18.034 13.266 27.314 9.0574 29.845 9.6167 59.099 4.1626 108.45-1.3676 12.375-3.4786 26.378-4.0586 31.603-0.65419 5.8938-0.97775 14.606-0.26308 22.965 1.9417 22.711 0.0182 35.665-0.80863 37.779-5.203 13.299-50.305 9.3301-48.743-3.5914z"/>
 </g>
 <g id="hands">
  <path id="right_hand" d="m732.93 881.58c18.977-6.3928 36.22-26.904 43.434-51.666 3.6138-12.404 4.125-22.497 1.9442-38.379-1.7454-12.71-1.744-13.597 0.0411-27.144 1.6026-12.162 1.6892-15.41 0.65779-24.685-1.6349-14.703-1.5046-20.393 0.85049-37.114 5.3641-38.085 7.2188-72.967 5.0232-94.475-2.5384-24.867-8.1607-46.372-15.904-60.83l-3.6577-6.8299-0.8365 5.3299c-1.4512 9.2465 0.0873 31.088 3.7565 53.33 5.5468 33.624 8.6221 65.214 8.5183 87.5-0.0895 19.224-1.4275 21.879-2.2682 4.5-0.77946-16.114-1.8696-27.156-4.2451-43-2.1591-14.4-8.5301-49.851-9.1362-50.837-0.28288-0.4603-1.9261 0.49355-3.6516 2.1197-1.7255 1.6261-5.328 4.2142-8.0056 5.7513l-4.8684 2.7947 0.59593 5.0856c0.32775 2.7971 1.2794 12.061 2.1146 20.586s2.6524 25.175 4.0379 37c4.7432 40.481 7.4883 66.424 7.4883 70.769 0 2.39-0.53002 6.4504-1.1778 9.0231l-1.1778 4.6776-1.2584-5.4848c-0.70237-3.0612-1.0098-7.9574-0.69584-11.08 0.90138-8.9654-1.4398-30.657-7.7607-71.904-7.9168-51.661-9.1834-57.812-13.902-67.5-4.7297-9.7108-14.611-24.708-20.854-31.652l-4.5936-5.1091-0.83365 2.8805c-1.5354 5.3055-2.0537 33.488-0.8426 45.824 2.1007 21.398 6.8069 38.404 18.484 66.793 10.13 24.628 16.022 48.51 15.456 62.653-0.40463 10.119-2.2744 14.427-9.9972 23.033-10.853 12.094-14.678 21.984-15.9 41.113-0.47572 7.4446-1.8124 17.57-2.9704 22.5-1.158 4.9304-2.3658 11.991-2.6839 15.69-0.63758 7.4132 0.37109 9.7747 4.175 9.7747 5.76 0 9.4875-10.798 10.269-29.75 0.30069-7.2875 0.79139-13.25 1.0904-13.25 0.29905 0 1.4727 0.86664 2.6082 1.9259 7.2154 6.731 15.278-0.20256 17.66-15.186 0.54543-3.4319 1.2175-7.7023 1.4935-9.4898 0.72728-4.7099 2.4112-3.9891 2.4112 1.0321 0 7.1058 2.3321 13.848 7.2928 21.084 5.5512 8.0974 6.2268 11.09 1.6304 7.2226-1.6922-1.4239-3.5256-2.5889-4.0742-2.5889-1.4781 0-12.849 11.101-12.849 12.544 0 0.68165 1.0479 1.5024 2.3286 1.8238 5.5032 1.3812 6.3202 13.383 1.8173 26.695-2.8499 8.4251-7.9458 19.471-8.6554 18.761-0.20631-0.20631 1.4131-6.6636 3.5988-14.349 2.1856-7.6859 4.2427-16.504 4.5713-19.595 0.51735-4.8675 0.31204-5.9064-1.5315-7.75-1.1709-1.1709-2.4964-2.129-2.9456-2.129-0.44914 0-1.6401 4.3875-2.6467 9.75-3.4404 18.329-5.8932 23.505-16.303 34.401-6.0381 6.32-7.3277 8.1772-6.1817 8.9022 2.5405 1.6073 12.792 1.0208 19.058-1.0904z" fill="#fff"/>
  <path id="left_hand" d="m314.01 882.51c1.9336-1.0348 1.5985-1.5691-5.4875-8.75-4.1507-4.2064-8.4594-9.4479-9.5748-11.648-2.6428-5.2125-6.736-19.51-7.6268-26.64-0.60715-4.8595-0.95823-5.553-2.5942-5.1252-2.3524 0.61518-4.2779 7.1951-3.3943 11.599 0.59365 2.9587 5.3392 20.026 7.644 27.491 1.5922 5.1572 0.24066 4.8966-2.4659-0.47543-9.7593-19.371-11.242-38.288-3.2396-41.331 1.4016-0.53289 2.5484-1.1777 2.5484-1.4328 0-0.99749-8.3836-10.147-10.241-11.177-2.5931-1.4375-6.0697-0.69945-8.8333 1.8753l-2.2341 2.0814 0.70428-2.9327c0.38735-1.613 2.1962-5.1827 4.0196-7.9327s3.706-5.675 4.1834-6.5 1.1005-5.55 1.3846-10.5l0.51655-9 1.6655 3.5c0.91605 1.925 1.95 5.75 2.2978 8.5 0.89826 7.104 5.965 17.153 9.5952 19.03 3.5412 1.8312 7.4122 1.0587 9.493-1.8945 2.32-3.2926 3.4092-0.50858 3.4681 8.8643 0.10443 16.643 4.44 30.824 9.8379 32.179 5.7521 1.4437 6.6002-6.535 2.5514-24.001-1.4251-6.1478-2.9534-16.601-3.3961-23.228-1.2233-18.312-5.2827-28.56-16.358-41.297-8.3276-9.5769-9.1658-11.803-9.0927-24.153 0.0954-16.099 5.3138-34.236 20.428-71 6.1261-14.901 10.083-27.899 12.634-41.5 1.5264-8.1389 1.8682-14.653 1.8366-35-0.0248-15.942-0.42887-25.683-1.1152-26.885-0.99985-1.751-1.3521-1.6057-4.9611 2.0453-4.8571 4.9138-17.404 22.487-21.915 30.693-4.1079 7.4733-6.5738 17.509-9.9873 40.646-1.42 9.625-4.3439 28.75-6.4976 42.5-4.7461 30.301-6.2292 44.279-5.8887 55.5 0.14188 4.675 0.14037 11.2-3e-3 14.5l-0.26132 6-2.1407-4.5c-2.7306-5.74-2.6105-12.186 0.76356-41 1.3847-11.825 3.8773-33.875 5.5391-49s3.6931-32.7 4.514-39.056c2.1091-16.33 2.2569-15.523-3.3649-18.371-2.6716-1.3538-6.2906-3.6674-8.0422-5.1413-1.7516-1.4739-3.3356-2.5113-3.52-2.3054-0.45407 0.50713-6.3326 32.069-8.1718 43.874-2.4096 15.467-5.3678 44.822-5.4922 54.5-0.18204 14.167-1.7019 6.1893-1.8098-9.5-0.17882-25.994 3.644-60.502 11.355-102.5 0.80785-4.4 1.4845-12.02 1.5037-16.932 0.0386-9.8708-1.816-26.568-2.9509-26.568-1.2382 0-8.69 17.056-11.506 26.336-9.0574 29.845-10.352 58.311-4.8984 107.66 1.3676 12.375 2.961 26.775 3.541 32 0.65419 5.8938 0.75406 14.625 0.26308 23-1.1594 19.778-1.0728 26.343 0.49749 37.744 1.2587 9.1383 1.2316 11.513-0.25124 22-2.1361 15.107-2.0806 23.59 0.22774 34.774 5.6946 27.591 23.053 49.698 44.855 57.128 7.2512 2.4711 16.106 3.0413 19.448 1.2524z" fill="#fff"/>
  <path d="m752.53 851.95c6.4046-12.335 13.744-24.069 12.719-20.336-1.3797 5.027-6.4816 15.303-10.891 21.936-7.1784 10.798-7.9258 10.144-1.828-1.5999z"/>
  <path d="m276.32 856.62c-4.6456-6.9879-10.656-19.83-11.936-25.502-0.63319-2.8064-0.58453-2.8709 0.7541-1 3.8605 5.3956 17.487 33.5 16.243 33.5-0.22474 0-2.5021-3.149-5.0608-6.9979z"/>
 </g>
 <path id="glutes" d="m505.07 780.95c4.8491-9.2476 5.5361-13.683 6.7895-43.833 0.59449-14.3 1.4239-28.7 1.8431-32l0.76218-6 0.73046 7.5c0.40176 4.125 1.3512 19.65 2.11 34.5 1.4579 28.535 2.2063 32.729 7.3161 41 27.124 43.903 107.79 53.989 103.92-28.45-1.1895-25.345-15.137-48.686-30.647-69.171-25.593-33.802-135.31-40.554-167.61-0.37944-11.615 14.446-22.579 28.585-28.469 47.042-23.054 72.245 65.68 121.46 103.26 49.79z" fill="#fff"/>
 <g id="quads" fill="#fff">
  <path d="m380.7 946.75c2.2192-51.932 4.9559-74.385 11.155-91.516 7.974-22.037 27.481-35.645 45.7-33.45 6.6436 0.80034-15.167-8.8646-29.178-18.923-6.7441-4.8415-10.972-18.98-13.832-26.79-1.8199-4.9691-2.1648-8.3231-2.3585-22.93-0.16202-12.221-0.68481-18.65-1.8297-22.5-2.3486-7.899-3.1814-8.7941-4.4288-4.7603-8.8877 28.742-18.505 77.807-23.397 119.37-2.0523 17.435-1.7098 72.914 0.54335 88 3.5757 23.94 8.744 45.645 13.354 56.083l1.7304 3.9174 0.70461-10c0.38753-5.5 1.2142-21.925 1.837-36.5z"/>
  <path d="m648.63 947.82c-2.2192-51.932-4.9559-74.385-11.155-91.516-7.974-22.037-27.481-35.645-45.7-33.45-6.6436 0.80034 15.167-8.8646 29.178-18.923 6.7441-4.8415 10.972-18.98 13.832-26.79 1.8199-4.9691 2.1648-8.3231 2.3585-22.93 0.16202-12.221 0.68481-18.65 1.8297-22.5 2.3486-7.899 3.1814-8.7941 4.4288-4.7603 8.8877 28.742 18.505 77.807 23.397 119.37 2.0523 17.435 1.7098 72.914-0.54335 88-3.5757 23.94-8.744 45.645-13.354 56.083l-1.7304 3.9174-0.70461-10c-0.38753-5.5-1.2142-21.925-1.837-36.5z"/>
 </g>
 <g id="hamstring" fill="#fff">
  <path d="m391.51 1042.9c7.6123-9.0322 11.641-17.115 20.069-40.264 9.1237-25.06 23.486-71.205 29.101-93.5 4.6016-18.272 17.141-79.741 17.141-84.027 0-0.7703-4.7111-0.6086-15.891 0.54543-19.672 2.0306-24.022 3.8446-33.312 13.894-17.3 18.713-21.695 41.127-21.781 111.09-0.037 30.192-1.2009 53.837-3.4457 70-0.80205 5.775-1.7367 16.125-2.0769 23l-0.6186 12.5 2.1356-2.7357c1.1746-1.5046 5.0803-6.2296 8.6793-10.5z"/>
  <path d="m647.33 1043.9c-0.40197-7.0125-1.5859-19.05-2.6309-26.75-1.4843-10.936-2.1172-24.832-2.8924-63.5-0.54578-27.225-1.43-54.687-1.965-61.026-1.9422-23.015-8.6232-40.794-19.991-53.2-9.2905-10.139-12.771-11.552-33.766-13.707-9.7702-1.003-17.871-1.7338-18.002-1.6239-0.13087 0.10982 1.7775 10.068 4.2409 22.128 8.5144 41.688 17.741 75.575 34.969 128.43 15.059 46.2 19.43 55.94 32.528 72.485 4.125 5.2103 7.6666 9.4827 7.8703 9.4943 0.20366 0.012 0.0414-5.7164-0.36056-12.729z"/>
  <path d="m462.6 1048.4c6.0166-17.937 8.2136-28.783 12.711-62.75 1.4202-10.725 3.9014-25.125 5.5138-32s4.9666-21.05 7.4538-31.5c9.6293-40.458 13.487-67.477 14.271-99.961l0.55421-22.961-6.3902 5.801c-7.292 6.6197-16.732 12.51-25.231 15.745-4.1146 1.5658-6.1126 2.9378-6.7607 4.6425-0.90753 2.387-9.6261 43.147-16.52 77.233-3.4506 17.06-3.5258 17.927-2.9933 34.5 0.33531 10.437 1.715 25.493 3.5737 39 3.4236 24.878 7.5064 59.686 8.5332 72.75 0.37825 4.8125 1.0239 8.75 1.4348 8.75 0.41089 0 2.1433-4.1625 3.8497-9.25z"/>
  <path d="m570.71 1042.1c1.1391-9.9 2.544-22.5 3.1222-28s2.3718-20.125 3.9859-32.5 3.61-28.631 4.4353-36.124c2.1-19.068 1.3384-24.99-8.9223-69.376-2.5429-11-6.1716-27.4-8.0638-36.444-1.8922-9.0442-3.7806-16.761-4.1963-17.148-0.41577-0.38699-4.131-2.1103-8.256-3.8296-6.9995-2.9174-13.003-6.8245-22.914-14.913l-4.0855-3.334 0.0103 15.834c0.0228 34.989 5.6911 73.656 18.932 129.15 3.3508 14.043 5.7683 27.435 7.5251 41.689 4.6814 37.982 5.9546 44.775 11.714 62.5 3.1973 9.8394 3.8028 11.352 4.3303 10.816 0.1715-0.174 1.2438-8.4165 2.3828-18.316z"/>
 </g>
 <path d="m451.31 1054.4c-1.2727-18.845-2.6972-34.899-4.0152-45.25-2.0672-16.234-7.3909-52.466-8.3019-56.5-0.75553-3.3455-0.84251-3.4045-1.9705-1.3364-0.64903 1.19-5.2691 13.115-10.267 26.5-4.9977 13.385-11.528 30.477-14.511 37.982s-5.4244 14.068-5.4244 14.585c0 0.5407 3.2861 0.7585 7.75 0.5139 7.0943-0.3889 8.2154-0.1757 13.25 2.5193 6.4173 3.4352 13.231 11.25 19.17 21.986 2.2058 3.9875 4.2054 7.25 4.4435 7.25s0.1823-3.7125-0.12413-8.25z" fill="#fff"/>
 <path d="m579.44 1060.4c6.7856-13.416 15.006-23.222 22.752-27.142 4.7628-2.4097 6.4257-2.7331 12.56-2.4427 4.2788 0.2026 7.0623-0.06 7.0499-0.6653-0.0113-0.55-1.6187-4.825-3.572-9.5-3.9314-9.4094-9.4137-23.772-18.967-49.691-3.485-9.4549-7.2084-18.891-8.2744-20.968l-1.938-3.7776-1.0937 5.4684c-4.5896 22.948-13.975 113.97-11.752 113.97 0.31866 0 1.7743-2.3625 3.2347-5.25z" fill="#fff"/>
 <g id="calves" fill="#fff">
  <path d="m442.88 1222.4c7.0897-4.7777 11.558-12.977 16.205-29.739 1.8322-6.6085 2.0886-10.412 2.1574-32 0.0712-22.33-0.1755-26.094-2.7854-42.5-7.5482-47.449-18.613-73.707-33.069-78.478-4.7693-1.574-5.1076-1.1054-6.0256 8.3464-1.2093 12.45-10.501 76.925-11.174 77.541-0.35547 0.3248-0.37308-1.2095-0.0391-3.4095 0.33395-2.2 1.089-12.325 1.678-22.5s1.7251-27.275 2.5247-38c1.9845-26.617 2.06-25.18-1.2816-24.377-10.477 2.518-20.889 13.764-30.577 33.025-4.0307 8.0136-10.741 26.844-13.646 38.293-2.648 10.437-5.7819 29.774-6.5733 40.56-0.73855 10.066 0.77043 28.092 3.1042 37.082 6.2956 24.254 21.671 33.838 32.401 20.197 4.5015-5.7227 9.2642-20.776 11.32-35.779 0.19312-1.4091 0.68248 0.1182 1.1215 3.5 3.4154 26.312 10.124 42.58 20.056 48.637 4.2112 2.5681 10.453 2.3977 14.603-0.3985z"/>
  <path d="m596.14 1224.5c11.488-3.19 18.871-17.399 22.194-42.71 0.75335-5.7393 1.5483-10.614 1.7665-10.832 0.21823-0.2182 0.97151 2.8683 1.674 6.8588 2.7605 15.682 8.5324 29.182 14.163 33.126 2.8635 2.0057 9.0629 2.1109 12.681 0.2151 9.2334-4.8372 15.211-17.684 18.187-39.085 5.5572-39.964-13.828-106.96-37.009-127.9-4.6394-4.1914-11.199-7.5437-14.827-7.5776-2.2605-0.021-2.3267 0.1927-1.7721 5.728 0.31684 3.1625 1.0489 14.075 1.6268 24.25 1.5844 27.898 2.9734 48.866 3.6433 55 0.33036 3.025 0.34172 5.2599 0.0252 4.9665-0.70058-0.6496-8.4032-56.63-10.651-77.409-0.59157-5.4684-1.2454-10.112-1.4528-10.32-1.023-1.023-8.8062 4.2179-11.864 7.9886-10.341 12.752-17.424 33.711-23.58 69.774-4.9059 28.736-5.4241 61.144-1.2429 77.726 4.0164 15.928 10.014 25.96 17.575 29.394 4.808 2.1839 4.1283 2.122 8.8622 0.8075z"/>
 </g>
 <g id="feet">
  <path id="right_foot" d="m632.18 1461.1c3.7756-0.8 11.166-3.5328 16.423-6.0731 12.776-6.1736 13.163-6.3041 25.034-8.4478 9.7468-1.7601 13.178-3.0916 13.178-5.1135 0-1.6346-8.4505-9.0998-18-15.901-9.4767-6.7498-13.788-10.7-15.789-14.464-0.88048-1.6563-1.1954-0.9042-1.8838 4.5-0.70917 5.5664-0.91035 3.7881-1.4154-12.511-0.48469-15.641-1.015-20.591-3-28-2.2468-8.3864-2.4077-10.67-2.3594-33.5 0.05-23.63 0.81206-36.436 4.0765-68.5 1.6549-16.254 5.5812-42.207 7.9143-52.312 0.80155-3.4717 1.4574-6.4956 1.4574-6.7199s-1.6546 0.715-3.6769 2.0874c-4.687 3.1807-7.259 3.8012-13.335 3.2174-6.06-0.5823-10.258-3.614-15.458-11.164l-3.8352-5.5685-3.83 7.7301c-7.6198 15.379-19.046 23.204-29.871 20.456-2.1968-0.5576-3.9911-0.7242-3.9872-0.3702 4e-3 0.3541 0.86769 4.2437 1.9196 8.6437 2.1139 8.8417 6.8139 34.367 13.073 71 2.2554 13.2 5.6195 32.1 7.4757 42 3.3761 18.006 4.9726 29.981 5.9998 45 0.57372 8.3891 0.62667 8.599-7.439-29.5-0.52396-2.475-1.5741-6.525-2.3336-9l-1.381-4.5-1.2045 4c-0.66246 2.2-1.4502 8.05-1.7506 13-0.45798 7.5476-0.1284 10.694 2.0423 19.5 3.343 13.561 3.2702 19.907-0.39615 34.561-5.9367 23.728-3.5704 32.383 9.9807 36.505 4.1497 1.2623 15.073 0.9913 22.371-0.5548z" fill="#fff"/>
  <path d="m627.19 1396.1c-0.96093-2.5041 1.0247-35.135 5.1128-84.02 3.9714-47.489 5.4337-62.749 6.0746-63.39 0.64451-0.6445 0.50654 3.7475-0.57773 18.39-0.52945 7.15-1.4148 22.45-1.9676 34-1.6686 34.869-6.4143 95.18-7.5849 96.393-0.20871 0.2163-0.68444-0.4016-1.0572-1.3729z"/>
  <path id="left_foot" d="m416.85 1461.5c9.6022-2.0592 15.025-9.8224 13.523-19.358-0.35027-2.2231-2.1928-10.301-4.0946-17.951s-3.4577-14.986-3.4577-16.304c0-1.3173 1.3894-7.6584 3.0875-14.091 2.8395-10.756 3.0373-12.54 2.4618-22.196-0.34414-5.775-0.99422-12.075-1.4446-14l-0.8189-3.5-1.2158 3c-0.66869 1.65-2.7104 8.625-4.5371 15.5s-4.2725 15.875-5.4351 20l-2.1138 7.5 0.5333-6c1.122-12.624 16.11-93.431 27.01-145.63 1.9099-9.1456 3.4726-17.122 3.4726-17.725 0-0.7642-0.77793-0.8011-2.5651-0.1216-10.958 4.1664-22.285-3.6575-30.947-21.376l-4.3354-8.8686-2.1196 4.1548c-2.8917 5.6683-8.8596 12.088-12.751 13.718-4.5103 1.8882-10.036 1.6419-15.141-0.6748-5.1412-2.3329-5.2086-2.3435-4.6314-0.7281 1.0441 2.9224 5.4656 29.271 6.9222 41.25 2.4519 20.165 4.5559 48.991 5.2188 71.5 0.66289 22.508-0.3143 34.291-3.9396 47.5-1.9238 7.0096-2.1687 10.152-1.9785 25.384 0.11937 9.5612-0.20788 18.111-0.72723 19-0.68991 1.1806-0.97931 0.2691-1.0744-3.3841-0.0716-2.75-0.45584-6.125-0.85397-7.5l-0.72389-2.5-0.81703 2.4807c-1.4631 4.4423-4.8273 7.9984-13.506 14.276-9.8262 7.1079-19.03 15.466-19.03 17.281 0 1.7019 1.8451 2.3034 13.871 4.522 7.6885 1.4185 13.249 3.2468 21.5 7.0692 18.09 8.3804 28.521 10.374 40.659 7.7709z" fill="#fff"/>
  <path d="m399.97 1398.3c-0.0824-0.995-0.50316-1.5907-0.93499-1.3238-0.90036 0.5565-4.8674-48.409-6.2681-77.367-0.51877-10.725-1.6534-29.055-2.5214-40.734-2.5576-34.412-1.1598-27.682 2.8524 13.734 5.4378 56.131 8.454 98.237 7.4857 104.5-0.25509 1.65-0.53123 2.186-0.61363 1.191z"/>
  <path d="m387.98 1251.6c0-1.375 0.22697-1.9375 0.50438-1.25 0.27742 0.6875 0.27742 1.8125 0 2.5-0.27741 0.6875-0.50438 0.125-0.50438-1.25z"/>
 </g>
 <path id="head" d="m548.16 221.28c2.0286 2.2898 5.399 9.3763 8.907 13.926l10.402 13.49-3.1411-17.84c-2.4583-13.962 0.56348-24.179 5.7535-32.401 1.4374-2.2771 4.3164-7.6615 6.3977-11.965 4.0843-8.4458 5.7832-18.205 4.4957-25.826l-0.68753-4.0695-1.7613 2.269c-0.96873 1.248-3.5735 6.094-5.7884 10.769-2.2149 4.675-4.742 9.4-5.6158 10.5-1.5362 1.934-1.5897 1.9368-1.6205 0.0857-0.0175-1.0529 1.1818-8.4779 2.665-16.5 3.3255-17.986 3.7283-36.824 1.0067-47.086-5.3311-20.1-18.484-35.134-36.525-41.749-8.1973-3.0056-23.767-4.1116-32.441-2.3046-8.0138 1.6694-18.708 7.2594-25.149 13.146-18.349 16.77-24.268 42.979-17.595 77.905 1.1033 5.7739 1.9828 12.074 1.9544 14-0.0462 3.1424-0.62282 2.3724-5.6147-7.498-3.0597-6.05-5.761-11.212-6.0029-11.471-1.3912-1.4903-2.3831 3.5248-2.071 10.471 0.39533 8.7987 2.2585 13.837 9.6471 26.088 6.8715 11.393 9.2448 20.417 9.9706 37.912l0.62231 15 8.0314-12.117c2.5183-3.7992 8.7633-12.303 10.165-15.036 6.1031-11.899 44.748-21.425 63.994 0.29958z" fill="#fff"/>
 <path id="traps" d="m510.09 302.62c-3.659-11.039-20.236-17.487-48.045-18.687-18.676-0.80626-14.669-2.6478 5.8505-2.6892 15.524-0.0314 25.912 1.1855 35.763 4.1895 3.2552 0.99264 5.6043 1.2475 6.1573 0.66814 0.49174-0.51523 1.3717-10.387 1.9554-21.937s1.3657-27.075 1.7377-34.5 0.80652-13.05 0.96557-12.5c0.15904 0.55 0.7491 7.75 1.3112 16 0.56214 8.25 1.583 23.221 2.2686 33.269 0.68555 10.048 1.4927 18.664 1.7937 19.146 0.30101 0.48259 5.7223-0.25144 12.047-1.6312 9.2395-2.0155 14.547-2.5357 27-2.6464 9.6495-0.0858 16.195 0.27384 17.341 0.9528 1.4233 0.84319-1.1856 1.2419-11.5 1.7574-15.418 0.77062-24.687 2.5212-32.676 6.1716-7.2458 3.3108-11.628 7.5671-12.051 12.847-0.42798 5.3439-13.807 31.99 54.436 25.257 35.07-3.4599 56.905-7.2118 67.96-17.047l3.99-3.5498-2.764-2.4777c-3.9664-3.5557-13.456-8.8926-36.236-20.379-24.169-12.187-30.872-16.484-40-25.645-7.7332-7.7608-20.052-32.501-22.104-34.693-15.222-16.26-43.432-15.977-56.354-1.9842-2.5174 2.7261-8.8939 9.9252-11.633 15.342-6.8541 13.553-17.542 26.089-28.375 33.283-3.5938 2.3867-16.884 9.4568-29.534 15.711-12.65 6.2545-25.898 13.347-29.44 15.76l-6.44 4.3883 4.8602 4.4002c6.1888 5.6031 10.085 7.5617 21.115 10.614 13.444 3.7201 41.386 6.6931 54.71 6.717 30.829 0.0552 53.25-3.904 45.89-26.108z" fill="#fff"/>
</svg>
