<?xml version="1.0" standalone="no"?>
<!DOCTYPE svg PUBLIC "-//W3C//DTD SVG 20010904//EN"
 "http://www.w3.org/TR/2001/REC-SVG-20010904/DTD/svg10.dtd">
<svg version="1.0" xmlns="http://www.w3.org/2000/svg"
 width="1024.000000pt" height="1536.000000pt" viewBox="0 0 1024.000000 1536.000000"
 preserveAspectRatio="xMidYMid meet">

<g transform="translate(0.000000,1536.000000) scale(0.100000,-0.100000)"
fill="#000000" stroke="none">
<path d="M4975 14774 c-280 -46 -474 -229 -550 -518 -14 -54 -28 -143 -32
-198 -6 -100 -6 -101 -44 -138 -50 -49 -59 -75 -59 -164 0 -129 30 -221 133
-399 63 -110 87 -195 87 -307 0 -183 -73 -255 -455 -447 -104 -53 -221 -116
-259 -140 -92 -59 -99 -61 -234 -73 -160 -14 -228 -32 -361 -97 -98 -47 -125
-65 -190 -131 -128 -128 -191 -246 -238 -440 -24 -97 -26 -128 -27 -327 l-2
-220 -31 -60 c-46 -88 -61 -127 -93 -250 -40 -151 -66 -316 -85 -538 -15 -177
-18 -192 -51 -265 -155 -338 -204 -561 -204 -935 0 -200 13 -374 46 -637 21
-159 30 -633 23 -1145 -3 -167 -1 -187 24 -278 35 -130 120 -294 199 -381 113
-125 240 -197 386 -218 173 -24 302 56 232 145 -11 14 -52 56 -91 94 -62 59
-99 107 -99 128 0 3 20 -6 43 -20 81 -47 161 -26 193 51 21 50 17 137 -12 254
-14 58 -29 158 -34 223 -16 201 -56 307 -169 448 -71 89 -91 131 -91 193 0
111 63 328 180 615 113 278 160 442 177 616 9 89 10 361 3 530 l-5 110 72 180
c40 99 91 247 115 328 l43 149 16 -54 c40 -132 127 -318 244 -523 116 -203
109 -176 85 -316 -45 -264 -62 -577 -41 -744 6 -46 4 -78 -10 -134 -10 -40
-23 -110 -29 -155 -36 -290 -55 -409 -90 -546 -101 -401 -155 -692 -197 -1065
-27 -248 -25 -699 6 -905 30 -210 62 -357 117 -540 42 -142 47 -166 51 -290 3
-74 0 -214 -6 -310 -9 -162 -13 -184 -51 -300 -105 -325 -140 -501 -147 -745
-5 -155 -2 -198 16 -308 12 -70 35 -171 51 -225 88 -295 154 -854 154 -1307 1
-250 -1 -277 -22 -360 -13 -49 -27 -143 -32 -208 -10 -118 -24 -167 -60 -197
-9 -8 -62 -49 -116 -91 -158 -121 -198 -180 -174 -254 18 -54 68 -82 180 -99
119 -19 133 -23 250 -80 255 -124 529 -94 612 67 36 71 35 153 -2 302 -39 154
-42 233 -11 319 36 102 37 175 6 322 -38 178 -39 164 79 849 51 290 89 439
151 580 108 249 143 498 115 815 -15 166 -20 204 -51 398 -16 100 -29 195 -29
210 0 15 13 59 29 99 85 208 133 403 176 713 37 269 50 340 111 590 129 527
186 908 195 1305 l2 80 7 -65 c4 -36 8 -106 9 -155 1 -103 26 -407 42 -505 35
-228 93 -508 178 -861 17 -69 38 -184 46 -255 40 -330 48 -388 77 -519 17 -79
57 -212 91 -305 l60 -165 -17 -125 c-55 -395 -59 -438 -60 -640 -2 -301 13
-386 105 -602 78 -186 147 -490 214 -953 41 -278 42 -332 11 -458 -33 -137
-33 -215 -1 -332 33 -118 32 -180 -6 -328 -80 -315 17 -456 312 -457 113 0
219 27 344 89 55 28 116 52 135 55 19 3 53 8 75 11 100 13 174 46 196 86 31
59 -22 139 -163 245 -192 146 -187 138 -207 334 -6 58 -19 132 -29 165 -14 51
-17 104 -17 350 1 519 44 863 181 1435 37 154 37 156 38 385 1 181 -3 250 -17
325 -23 124 -67 294 -117 454 -34 110 -42 150 -51 277 -6 82 -9 231 -7 331 4
177 6 187 40 293 116 358 154 639 145 1083 -8 436 -58 782 -196 1357 -70 295
-75 324 -96 520 -8 83 -23 184 -32 225 -14 57 -17 101 -13 185 13 284 0 510
-41 746 -24 135 -33 106 94 331 87 154 165 318 213 453 18 49 34 83 37 75 3
-8 12 -44 22 -80 25 -100 91 -280 163 -445 l65 -149 -13 -150 c-21 -244 -1
-502 55 -713 13 -50 60 -182 104 -292 91 -227 155 -425 176 -549 28 -157 20
-186 -80 -317 -114 -150 -155 -263 -170 -475 -4 -52 -18 -143 -31 -202 -39
-174 -27 -270 41 -314 34 -22 116 -14 156 15 17 13 32 21 34 19 10 -10 -59
-95 -122 -153 -108 -99 -120 -155 -41 -194 97 -46 230 -33 371 36 94 47 235
186 298 293 123 212 162 434 124 706 -13 91 -14 120 -4 174 8 41 13 168 14
345 1 164 6 305 13 340 11 58 20 148 43 419 15 170 6 540 -16 676 -29 188 -73
336 -152 513 -63 144 -70 172 -83 347 -26 360 -74 592 -158 758 -47 93 -49 99
-41 152 4 30 8 109 8 175 3 430 -160 731 -474 881 -105 50 -177 69 -330 84
-104 11 -115 14 -195 60 -47 27 -186 100 -310 162 -327 165 -407 222 -448 318
-30 68 -35 143 -17 228 16 76 19 83 109 253 65 124 96 231 96 336 0 89 -16
131 -64 169 -36 29 -36 30 -36 104 0 160 -43 331 -111 447 -44 74 -160 190
-224 225 -102 54 -197 79 -323 83 -65 2 -130 1 -147 -1z m259 -114 c108 -27
170 -63 253 -146 78 -78 128 -168 160 -284 27 -102 23 -290 -10 -471 -15 -80
-27 -153 -27 -163 0 -34 23 -2 68 93 25 53 53 106 63 119 l17 22 7 -41 c17
-101 -20 -232 -105 -371 -57 -92 -82 -189 -89 -333 l-6 -130 -54 89 c-30 49
-67 121 -82 160 -36 90 -38 59 -3 -42 37 -109 118 -261 172 -323 77 -87 190
-162 415 -275 238 -120 334 -173 374 -209 l28 -25 -40 -36 c-109 -97 -332
-153 -679 -170 -180 -9 -151 -24 62 -31 106 -4 152 -9 149 -17 -45 -119 -125
-377 -157 -501 -87 -336 -144 -451 -455 -918 l-152 -228 -7 73 c-10 116 -7
1828 3 1872 12 51 53 91 127 127 82 39 179 58 336 66 100 5 126 9 111 17 -11
7 -77 11 -173 10 -128 -1 -175 -6 -270 -27 -63 -14 -117 -24 -119 -21 -5 5
-16 134 -36 444 -9 140 -18 256 -20 258 -1 2 -6 -55 -9 -125 -3 -70 -11 -227
-17 -348 -6 -121 -15 -224 -20 -229 -5 -6 -29 -4 -61 6 -101 31 -203 43 -358
42 -205 0 -244 -19 -59 -27 279 -12 444 -76 481 -187 14 -41 24 -1757 11
-1879 l-8 -74 -203 302 c-269 401 -339 545 -407 836 -34 144 -58 222 -117 382
-26 73 -48 135 -48 137 0 2 73 6 163 9 219 7 255 22 76 31 -201 10 -313 24
-425 51 -130 31 -197 61 -258 117 l-50 45 63 42 c35 24 167 95 294 158 128 63
261 135 297 158 109 72 216 197 284 333 28 54 86 206 86 223 0 5 -24 -37 -53
-94 -29 -56 -73 -133 -98 -172 l-44 -70 -6 145 c-7 171 -25 249 -80 346 -82
145 -111 212 -116 273 -6 61 2 131 15 131 4 0 32 -50 62 -111 48 -97 55 -107
58 -81 2 17 -7 84 -19 149 -32 165 -32 356 -1 467 36 126 78 202 157 281 75
76 156 125 246 149 79 21 211 20 303 -4z m-1512 -2399 c20 -7 64 -30 99 -53
144 -97 124 -205 -79 -419 -142 -150 -310 -278 -467 -355 -38 -19 -126 -54
-195 -78 -69 -24 -148 -53 -177 -65 l-52 -21 -7 37 c-12 64 4 312 25 393 82
315 287 517 579 570 59 11 225 5 274 -9z m3077 -1 c357 -86 567 -417 549 -863
-3 -65 -8 -120 -10 -123 -5 -4 -67 18 -363 134 -231 90 -577 384 -670 571 -28
55 -34 115 -16 149 13 25 84 83 128 106 96 49 245 59 382 26z m-2661 -234 c47
-24 116 -107 159 -191 82 -158 115 -300 115 -488 -1 -114 -3 -134 -24 -175
-43 -88 -161 -148 -310 -159 -135 -10 -278 39 -415 141 -109 82 -203 200 -203
255 0 40 220 211 272 211 46 0 61 -13 149 -128 92 -119 207 -237 260 -266 28
-16 23 -7 -36 55 -76 80 -137 163 -224 304 -70 114 -72 143 -18 233 81 132
171 222 224 222 13 0 36 -6 51 -14z m2052 -16 c61 -44 180 -241 180 -299 0
-65 -161 -311 -287 -438 -40 -40 -69 -73 -64 -73 4 0 28 14 54 30 54 37 141
128 238 250 81 103 121 140 154 140 49 0 265 -172 265 -211 0 -55 -157 -229
-273 -303 -173 -111 -371 -125 -539 -40 -116 59 -148 114 -148 256 0 336 196
734 352 715 20 -3 51 -15 68 -27z m806 -690 c272 -69 393 -184 469 -445 32
-112 64 -331 71 -492 6 -143 6 -143 -52 -28 -74 145 -159 227 -249 241 -92 13
-151 -33 -180 -141 -18 -70 -21 -411 -5 -514 6 -35 8 -66 4 -70 -3 -3 -19 10
-36 29 -101 118 -259 573 -288 830 -16 135 -8 365 15 440 23 73 63 131 105
152 44 22 50 22 146 -2z m-3633 -17 c63 -67 97 -207 97 -401 0 -161 -18 -280
-71 -462 -71 -249 -163 -464 -230 -541 l-30 -34 8 90 c4 50 8 178 7 285 0 177
-2 200 -23 252 -29 74 -67 103 -136 103 -109 0 -197 -78 -291 -255 l-55 -105
5 135 c3 74 16 200 30 280 66 390 182 565 424 644 100 32 106 33 178 35 53 1
63 -2 87 -26z m417 -301 c122 -42 208 -56 309 -49 119 8 190 29 305 87 l99 51
28 -27 c43 -41 120 -160 147 -227 21 -52 22 -64 12 -106 -6 -27 -91 -188 -200
-381 -182 -321 -207 -373 -245 -523 -20 -77 -65 -147 -96 -147 -67 0 -145 87
-279 310 -118 195 -211 408 -257 590 -23 91 -27 126 -27 260 -1 85 3 176 7
201 l8 47 52 -28 c29 -16 90 -41 137 -58z m1975 59 c103 -65 265 -111 393
-111 91 0 240 38 354 91 104 48 107 47 110 -46 1 -33 3 -76 4 -95 4 -67 -15
-245 -36 -325 -50 -198 -185 -483 -334 -705 -66 -100 -117 -153 -167 -175 -37
-17 -44 -17 -68 -4 -36 20 -58 69 -82 185 -25 121 -42 160 -201 444 -219 395
-218 393 -218 447 0 41 8 63 51 135 44 73 132 188 144 188 3 0 25 -13 50 -29z
m-838 -539 c51 -79 97 -176 123 -257 22 -68 23 -86 32 -700 4 -346 12 -659 16
-695 l8 -65 7 105 c4 58 12 357 17 665 7 454 12 574 25 635 19 87 82 226 148
325 43 66 142 174 150 164 2 -2 39 -65 82 -139 43 -74 108 -187 145 -250 176
-302 202 -372 204 -530 l1 -105 -130 -280 c-71 -154 -200 -420 -287 -592 -87
-171 -158 -317 -158 -325 0 -7 37 43 81 112 110 169 111 170 175 170 104 0
227 -66 359 -191 184 -176 311 -457 323 -715 6 -151 -18 -229 -125 -407 -19
-32 -33 -61 -30 -63 10 -10 85 67 125 129 73 112 86 166 87 372 2 169 3 184
27 239 l25 59 16 -49 c30 -91 117 -466 152 -648 146 -776 140 -1338 -21 -1848
-25 -78 -46 -144 -48 -146 -6 -6 -16 156 -31 508 -9 190 -20 393 -25 452 -28
295 -102 508 -219 631 -77 82 -126 104 -266 122 -252 33 -406 87 -543 190
-118 89 -203 220 -222 341 -5 32 -14 175 -20 318 -7 142 -15 279 -19 305 -7
45 -8 44 -14 -34 -4 -44 -12 -186 -17 -315 -5 -129 -15 -262 -21 -295 -23
-125 -123 -262 -253 -349 -113 -75 -305 -136 -490 -157 -110 -12 -171 -29
-225 -64 -115 -74 -203 -242 -250 -475 -29 -151 -38 -253 -56 -640 -9 -190
-20 -392 -24 -450 l-7 -105 -18 40 c-46 105 -110 386 -138 605 -17 138 -17
686 0 835 34 294 88 607 151 870 43 181 87 344 94 352 3 2 15 -26 27 -62 19
-57 23 -92 25 -238 1 -147 5 -180 23 -230 29 -79 83 -166 139 -224 58 -59 69
-42 20 31 -53 80 -94 165 -112 237 -26 97 -16 296 18 404 30 92 95 224 152
310 125 187 337 340 488 352 74 6 63 15 175 -154 73 -109 102 -146 102 -128 0
6 -79 157 -182 350 -58 107 -117 229 -309 640 -86 185 -94 206 -97 272 -6 101
19 203 77 315 51 100 266 469 339 583 l44 69 60 -63 c33 -35 76 -88 95 -119z
m-1868 -28 c43 -36 61 -104 61 -232 0 -132 -22 -284 -61 -415 -59 -200 -199
-438 -261 -445 -34 -4 -91 45 -111 96 -54 135 -43 486 23 698 26 85 81 190
126 243 69 80 165 104 223 55z m4238 5 c91 -44 174 -177 217 -351 49 -193 59
-526 19 -632 -23 -61 -72 -116 -104 -116 -52 0 -92 49 -184 224 -61 113 -101
223 -131 351 -27 114 -28 444 -2 492 10 18 26 37 35 42 30 17 104 12 150 -10z
m-4697 -614 c17 -135 9 -258 -29 -460 -57 -306 -92 -654 -90 -898 1 -155 16
-232 18 -92 1 100 32 399 55 545 22 132 78 434 82 439 2 2 17 -9 35 -23 18
-15 54 -38 80 -52 57 -28 55 -20 34 -183 -8 -64 -28 -237 -45 -386 -16 -148
-43 -391 -60 -539 -32 -282 -32 -320 5 -386 14 -24 14 -23 17 30 1 30 1 91 -1
135 -4 114 13 282 60 574 22 140 51 332 65 425 29 203 56 321 85 379 47 92
216 326 253 351 22 14 25 14 31 -2 4 -9 9 -109 12 -222 9 -339 -31 -537 -177
-885 -62 -147 -116 -302 -147 -423 -21 -84 -27 -131 -28 -218 0 -125 4 -134
111 -261 95 -111 131 -210 144 -388 4 -66 20 -170 34 -232 40 -174 32 -254
-25 -240 -53 14 -87 118 -96 295 -3 67 -10 125 -15 128 -5 4 -16 -3 -24 -14
-19 -28 -59 -35 -93 -17 -38 19 -87 117 -97 191 -3 31 -14 72 -24 92 l-18 36
-3 -95 c-4 -92 -5 -97 -46 -159 -23 -36 -45 -78 -48 -95 -4 -17 -3 -25 2 -19
13 18 50 34 77 34 17 0 39 -15 68 -46 61 -65 64 -72 33 -84 -56 -21 -69 -135
-31 -261 19 -64 85 -204 92 -197 6 6 0 30 -46 188 -40 134 -43 153 -30 199 8
29 16 41 29 41 15 0 20 -10 26 -47 12 -84 46 -206 71 -258 14 -27 60 -85 101
-127 l77 -77 -30 -12 c-43 -16 -140 -5 -214 25 -143 58 -262 176 -344 341 -88
176 -111 336 -81 556 16 119 17 141 4 228 -9 59 -12 140 -9 211 9 252 4 414
-23 630 -70 565 -57 873 49 1200 28 84 93 230 104 230 4 0 13 -47 20 -105z
m5081 -22 c45 -100 78 -217 107 -373 23 -132 26 -168 26 -410 0 -270 -10 -398
-54 -713 -23 -159 -25 -230 -8 -378 10 -93 9 -124 -5 -221 -21 -140 -21 -173
-1 -296 46 -281 -49 -569 -252 -763 -105 -100 -212 -149 -321 -149 -97 0 -98
8 -10 99 95 97 127 163 158 324 13 64 27 117 31 117 4 0 18 -10 29 -21 19 -19
21 -28 15 -80 -4 -32 -25 -121 -46 -196 -21 -76 -37 -139 -35 -141 7 -7 58
103 86 187 45 133 37 254 -18 267 -13 4 -23 12 -23 19 0 14 114 125 128 125 6
0 24 -12 41 -26 46 -39 39 -9 -16 72 -50 73 -73 140 -73 211 0 50 -17 58 -24
11 -20 -132 -27 -162 -42 -193 -9 -19 -30 -47 -47 -61 -34 -29 -67 -26 -103 7
-11 10 -23 19 -26 19 -3 0 -8 -60 -11 -132 -6 -139 -24 -221 -59 -270 -22 -31
-58 -37 -78 -13 -17 20 -8 120 20 240 12 50 25 151 30 225 12 193 43 273 155
406 99 116 100 119 99 264 0 176 -41 329 -172 655 -73 181 -124 345 -148 480
-19 110 -26 478 -10 570 l8 50 47 -51 c55 -60 144 -191 200 -294 53 -100 68
-169 145 -671 69 -452 89 -626 85 -754 -1 -44 1 -100 6 -124 l8 -45 14 45 c23
72 18 127 -62 814 -23 198 -65 594 -65 614 0 5 21 21 48 36 26 15 61 41 78 57
18 16 34 26 37 21 6 -9 69 -362 91 -508 22 -146 35 -271 43 -435 8 -172 21
-139 22 57 1 221 -29 528 -88 893 -36 222 -46 356 -36 474 l7 88 20 -33 c12
-19 34 -62 49 -96z m-1432 -293 c26 -152 41 -336 41 -491 0 -91 -3 -169 -6
-172 -4 -4 -28 9 -54 28 -106 78 -224 113 -412 122 -100 5 -128 9 -128 20 0
31 189 472 237 554 l16 26 35 -23 c57 -39 135 -27 205 32 l32 27 12 -29 c6
-16 16 -58 22 -94z m-2133 40 c41 0 83 16 110 41 l21 20 61 -123 c86 -175 202
-450 202 -478 0 -6 -21 -10 -47 -10 -85 0 -226 -20 -298 -41 -84 -25 -127 -47
-188 -93 -25 -19 -48 -32 -51 -29 -12 13 -5 353 10 483 15 129 38 263 49 281
3 4 27 -5 52 -21 27 -18 61 -30 79 -30z m415 -657 c48 -21 87 -65 91 -103 3
-19 -10 -27 -84 -59 -236 -103 -427 -292 -555 -550 -47 -96 -53 -103 -61 -80
-26 68 -37 154 -36 299 0 135 3 164 23 220 55 158 149 242 321 285 82 21 242
15 301 -12z m1467 12 c155 -37 241 -119 294 -280 20 -63 23 -88 22 -240 -1
-133 -5 -185 -20 -239 -11 -38 -23 -71 -29 -73 -5 -1 -27 38 -48 87 -111 258
-340 493 -562 576 -38 15 -74 31 -80 36 -25 22 61 120 123 138 46 14 233 11
300 -5z m-1011 -1797 c-10 -364 -43 -578 -177 -1138 -48 -200 -76 -344 -95
-485 -44 -338 -71 -467 -128 -632 -30 -88 -47 -115 -47 -75 0 83 -39 423 -95
832 -14 103 -28 261 -31 355 l-6 170 46 220 c90 440 147 706 155 728 6 16 30
31 78 50 84 33 203 110 258 166 21 23 41 41 43 41 3 0 2 -105 -1 -232z m358
125 c33 -25 98 -63 145 -85 46 -21 86 -40 87 -42 2 -1 23 -97 47 -212 25 -115
61 -277 80 -360 53 -223 76 -339 86 -435 9 -94 3 -165 -63 -689 -19 -151 -40
-327 -46 -390 -20 -198 -34 -291 -43 -278 -19 30 -78 231 -98 333 -11 61 -32
207 -46 325 -26 225 -37 284 -104 568 -119 507 -170 868 -170 1205 l0 158 33
-26 c17 -15 59 -47 92 -72z m-845 -369 c-87 -463 -162 -757 -315 -1238 -142
-443 -212 -604 -319 -731 -41 -49 -76 -93 -76 -97 0 -5 -5 -8 -11 -8 -18 0 0
237 36 490 3 19 10 269 15 555 11 657 24 759 114 950 53 112 141 211 223 251
44 22 82 30 211 43 86 9 158 14 160 10 2 -4 -16 -105 -38 -225z m1359 211
c173 -18 213 -36 303 -135 108 -117 173 -287 197 -510 5 -52 13 -291 16 -530
6 -435 12 -550 39 -775 8 -66 17 -174 21 -240 5 -110 4 -118 -10 -99 -8 11
-47 60 -85 108 -77 96 -109 154 -171 308 -46 116 -183 524 -234 698 -143 489
-184 650 -253 990 -48 233 -47 209 -4 204 20 -2 102 -11 181 -19z m124 -1527
c42 -114 103 -275 137 -358 33 -83 60 -154 60 -158 0 -4 -37 -7 -83 -7 -74 0
-87 -3 -132 -31 -61 -37 -140 -133 -195 -236 -23 -43 -43 -78 -45 -78 -23 0
71 919 117 1140 l11 55 27 -60 c15 -33 62 -153 103 -267z m-1589 -13 c19 -132
42 -301 50 -375 16 -141 38 -442 32 -448 -2 -1 -22 30 -44 70 -60 108 -128
186 -192 220 -50 27 -62 29 -132 26 -43 -2 -78 1 -78 5 0 5 24 70 54 146 30
75 91 235 136 356 46 120 92 240 103 265 l20 45 8 -35 c5 -19 24 -143 43 -275z
m-308 -803 c-9 -119 -21 -296 -26 -392 -5 -96 -13 -195 -16 -220 -4 -25 -4
-42 -1 -39 9 8 97 616 112 775 4 40 11 77 15 84 13 21 76 -7 128 -58 109 -107
179 -311 244 -705 30 -180 32 -208 32 -442 0 -267 -5 -302 -64 -458 -42 -111
-120 -187 -192 -187 -135 0 -232 178 -274 505 -5 36 -9 50 -12 35 -2 -14 -12
-69 -23 -124 -55 -275 -192 -374 -317 -231 -97 110 -145 349 -123 606 22 248
107 571 197 752 88 174 194 295 282 321 26 7 49 9 50 5 2 -5 -3 -107 -12 -227z
m2090 219 c167 -76 331 -387 419 -796 58 -270 58 -520 -1 -715 -43 -145 -121
-230 -209 -230 -91 0 -151 96 -200 320 -19 90 -23 100 -28 70 -43 -282 -69
-366 -137 -443 -79 -91 -181 -93 -255 -5 -39 45 -81 142 -106 241 -42 166 -37
479 12 772 75 450 186 715 321 770 l37 15 6 -58 c12 -105 55 -445 80 -627 14
-99 25 -186 25 -194 0 -8 2 -12 5 -9 3 3 -1 95 -9 204 -8 109 -20 291 -26 404
-6 113 -13 226 -16 253 -6 44 -5 47 18 47 12 0 42 -9 64 -19z m-2027 -1843
c67 -75 154 -105 227 -78 31 12 33 32 -19 -220 -118 -570 -251 -1289 -262
-1415 l-5 -60 21 75 c11 41 39 140 60 220 22 80 44 149 48 153 9 9 31 -145 31
-220 0 -28 -13 -103 -30 -166 -16 -64 -30 -129 -30 -144 0 -15 16 -88 35 -161
44 -174 50 -212 35 -259 -28 -87 -87 -118 -225 -118 -113 0 -149 10 -316 87
-77 35 -136 54 -210 67 -116 22 -139 29 -139 42 0 20 79 93 185 172 83 63 114
92 131 125 l21 44 6 -39 c4 -21 7 -56 7 -78 1 -32 3 -36 11 -23 6 10 9 90 7
195 -2 159 0 187 20 258 54 191 55 403 7 985 -14 178 -48 421 -78 563 -8 37
-13 67 -12 67 2 0 22 -9 46 -20 52 -23 119 -26 158 -6 36 19 95 85 121 137
l22 41 43 -88 c24 -49 62 -110 84 -136z m2092 112 c20 -26 53 -54 72 -63 52
-25 123 -22 176 8 24 14 45 24 47 22 2 -2 -1 -19 -6 -38 -17 -60 -68 -389 -84
-544 -32 -315 -40 -448 -40 -685 -1 -232 1 -251 27 -362 23 -101 27 -141 28
-280 1 -147 3 -157 11 -99 8 53 12 61 20 45 20 -37 64 -76 158 -144 95 -68
180 -143 180 -159 0 -20 -35 -33 -132 -51 -115 -20 -135 -27 -228 -74 -125
-64 -184 -79 -305 -80 -103 -1 -113 1 -157 27 -27 15 -55 41 -63 57 -23 44
-19 144 11 256 39 151 42 247 10 371 -15 59 -26 128 -26 165 1 58 21 183 32
194 8 7 50 -169 102 -426 l16 -75 -6 80 c-9 139 -25 265 -54 425 -16 85 -63
351 -105 590 -42 239 -87 483 -100 542 -14 59 -25 109 -25 111 0 2 20 0 45 -6
107 -25 223 57 293 205 36 75 37 77 52 56 8 -12 31 -43 51 -68z"/>
<path d="M2596 7085 c13 -59 75 -191 120 -257 25 -38 48 -68 50 -68 8 0 -37
101 -96 215 -68 131 -85 158 -74 110z"/>
<path d="M7558 7022 c-25 -42 -66 -117 -92 -167 -42 -83 -44 -87 -15 -55 57
65 171 281 156 296 -2 2 -24 -31 -49 -74z"/>
<path d="M3834 2865 c3 -27 11 -120 16 -205 5 -85 12 -180 15 -210 3 -30 10
-145 15 -255 13 -276 53 -774 61 -769 4 2 10 -4 12 -13 15 -57 -4 329 -33 677
-22 262 -80 813 -86 819 -3 3 -3 -16 0 -44z"/>
<path d="M6330 2904 c0 -10 -5 -60 -10 -109 -20 -194 -81 -950 -92 -1148 -9
-159 -9 -210 0 -219 9 -9 12 -8 12 5 0 9 9 110 20 224 22 236 36 431 50 713 5
107 15 273 21 368 6 96 8 176 5 179 -3 4 -6 -2 -6 -13z"/>
</g>
</svg>
